<svg id="Layer_1" data-name="Layer 1" xmlns="http://www.w3.org/2000/svg" viewBox="0 0 203.52 240.79"><title>bikeBird_Sm_Blsvg</title><path d="M94,65.29C-29.17,70-30.58,236.5,94,241.8,217.17,237.14,218.58,70.59,94,65.29Zm0,171.89C-24.12,232.13-22.66,74.3,94,69.91,212.12,75,210.66,232.79,94,237.18Z" transform="translate(-1.09 -1.01)"/><path d="M160,201.83c-7.28,7.67-17.58-8.21-17.58-8.21l11.35-16.86,3,.37-.33-2-2.62-4.69L148.27,162l-3.91,4.24,6.84,7.16L140,191.94s-4,3.45-.12,10.08,20.81,2.44,20.81,2.44S167.28,194.16,160,201.83Z" transform="translate(-1.09 -1.01)"/><polygon points="132.85 135.36 121.2 153.14 138.22 176.06 154.34 157.42 147.18 155.47 132.85 135.36"/><path d="M182.79,100.14a96,96,0,0,1-17.43,3.44,79.9,79.9,0,0,1,8,12.89C179,113,182.79,107.63,182.79,100.14Z" transform="translate(-1.09 -1.01)"/><path d="M124.72,90.34c-12.71,17.18,16.5,30.77,30.39,30.77,6.62,0,13.21-1.51,18.3-4.64a79.9,79.9,0,0,0-8-12.89,84.66,84.66,0,0,1-8.62.46C142.84,104,135.69,75.51,124.72,90.34Z" transform="translate(-1.09 -1.01)"/><path d="M185.58,174.45a33.57,33.57,0,0,0-5.7-2c-.29,1.24-.61,2.48-.95,3.71a29.27,29.27,0,1,1-19.52,54.95,29,29,0,0,1-12-10.46q-1.56,1.08-3.18,2.1a32.81,32.81,0,0,0,57.34-4.22A33.24,33.24,0,0,0,185.58,174.45Z" transform="translate(-1.09 -1.01)"/><path d="M145.3,192.13a29.07,29.07,0,0,1,33.63-16c.34-1.23.66-2.47.95-3.71a32.84,32.84,0,0,0-38,18.11,33.3,33.3,0,0,0,2.34,32.19q1.62-1,3.18-2.1A29.46,29.46,0,0,1,145.3,192.13Z" transform="translate(-1.09 -1.01)"/><path d="M173.59,200.39a4.49,4.49,0,0,0-6,2.19,4.55,4.55,0,0,0,2.19,6,4.53,4.53,0,0,0,3.8-8.22Zm.12,5.06a2.1,2.1,0,0,1-2.81,1,2.13,2.13,0,1,1,2.81-1Z" transform="translate(-1.09 -1.01)"/><path d="M172.28,203.66a1.05,1.05,0,0,0-1.4.52,1.07,1.07,0,0,0,.51,1.4,1,1,0,0,0,1.39-.51A1.06,1.06,0,0,0,172.28,203.66Z" transform="translate(-1.09 -1.01)"/><rect x="147.7" y="217.38" width="28.05" height="0.43" transform="translate(-108.91 245.76) rotate(-59.56)"/><polygon points="158.35 231.53 158.76 231.67 167.58 205.01 167.17 204.88 158.35 231.53"/><polygon points="169.76 206.39 176.38 233.69 176.8 233.58 170.18 206.29 169.76 206.39"/><polygon points="170.36 206.79 169.98 206.98 181.9 232.38 182.28 232.2 170.36 206.79"/><polygon points="172.38 206.85 172.05 207.13 189.85 228.76 190.18 228.48 172.38 206.85"/><polygon points="172.76 207.22 172.49 207.56 194.25 225.15 194.51 224.82 172.76 207.22"/><rect x="188.35" y="191.12" width="0.43" height="27.9" transform="translate(-25.7 383.43) rotate(-87.48)"/><rect x="175.03" y="201.98" width="27.91" height="0.43" transform="translate(-30.78 31.54) rotate(-9.13)"/><polygon points="173.4 205.13 173.23 205.53 198.82 216.74 198.99 216.34 173.4 205.13"/><polygon points="173.91 205.29 173.82 205.71 201.12 211.52 201.21 211.1 173.91 205.29"/><polygon points="198.57 190.2 173.39 202.31 173.57 202.7 198.76 190.59 198.57 190.2"/><polygon points="196.1 185.08 173.84 202.03 174.1 202.37 196.36 185.43 196.1 185.08"/><polygon points="190.64 180.32 172.81 201.93 173.14 202.2 190.97 180.59 190.64 180.32"/><polygon points="186.27 176.71 173.1 201.48 173.48 201.69 186.65 176.91 186.27 176.71"/><path d="M171.19,194.6l-.14,7.72h.43l.16-8.51Z" transform="translate(-1.09 -1.01)"/><path d="M172,174.24h-.43l-.38,20.36.45-.78Z" transform="translate(-1.09 -1.01)"/><path d="M170.05,196.54l1,5.25.42-.08L170.38,196Z" transform="translate(-1.09 -1.01)"/><path d="M166.34,174.09l-.42.08,4.13,22.37.33-.54Z" transform="translate(-1.09 -1.01)"/><polygon points="182.97 175.99 170.33 201.04 170.71 201.23 183.35 176.19 182.97 175.99"/><path d="M176.7,182.9l-5.09,18.65.41.11,7.4-27.09-.07,0A82.54,82.54,0,0,1,176.7,182.9Z" transform="translate(-1.09 -1.01)"/><path d="M179,174.46l-2.3,8.44a82.54,82.54,0,0,0,2.65-8.35Z" transform="translate(-1.09 -1.01)"/><path d="M168.29,199.3l1.22,3,.39-.16-1.32-3.24Z" transform="translate(-1.09 -1.01)"/><path d="M159.27,176.14l-.4.16,9.42,23,.29-.43Z" transform="translate(-1.09 -1.01)"/><path d="M167.93,199.83l1.32,2,.36-.24-1.42-2.11C168.1,199.57,168,199.7,167.93,199.83Z" transform="translate(-1.09 -1.01)"/><path d="M154,178.27l-.35.24,14.27,21.32c.09-.13.17-.26.26-.38Z" transform="translate(-1.09 -1.01)"/><path d="M166.68,201.61l2.33,2.21.3-.32-2.38-2.24Z" transform="translate(-1.09 -1.01)"/><path d="M149,184.29l-.29.31,18,17,.25-.35Z" transform="translate(-1.09 -1.01)"/><path d="M166.33,202.1l2.26,1.4.22-.37-2.23-1.38C166.5,201.87,166.42,202,166.33,202.1Z" transform="translate(-1.09 -1.01)"/><path d="M145,188.42l-.22.37,21.51,13.31c.09-.11.17-.23.25-.35Z" transform="translate(-1.09 -1.01)"/><path d="M165,203.94l3,.24,0-.43-2.7-.22Z" transform="translate(-1.09 -1.01)"/><path d="M140.14,201.55l0,.43,24.84,2,.31-.41Z" transform="translate(-1.09 -1.01)"/><path d="M167.35,203.77l-2.51.31-.39.48,3-.37Z" transform="translate(-1.09 -1.01)"/><path d="M139.66,207.23l.05.43,24.74-3.1.39-.48Z" transform="translate(-1.09 -1.01)"/><path d="M165.91,202.66l2.42,1.16.18-.39-2.33-1.12Z" transform="translate(-1.09 -1.01)"/><path d="M143.32,191.34l-.18.39,22.77,10.93.27-.35Z" transform="translate(-1.09 -1.01)"/><path d="M165.59,203.09l2.23.55.11-.41-2.05-.51Z" transform="translate(-1.09 -1.01)"/><path d="M140.84,196.47l-.1.41,24.85,6.21.29-.37Z" transform="translate(-1.09 -1.01)"/><path d="M167.3,204.07l-3,.71-.44.55,3.56-.84Z" transform="translate(-1.09 -1.01)"/><path d="M140.13,210.47l.1.42,23.61-5.56.44-.55Z" transform="translate(-1.09 -1.01)"/><path d="M166.72,204.28l-3.26,1.51-.65.78,4.09-1.9Z" transform="translate(-1.09 -1.01)"/><path d="M141.38,216l.18.39,21.25-9.86.65-.78Z" transform="translate(-1.09 -1.01)"/><path d="M169.44,204l-9.68,6-1.24,1.28,11.14-6.9Z" transform="translate(-1.09 -1.01)"/><path d="M145.67,218.7l.22.37,12.63-7.82,1.24-1.28Z" transform="translate(-1.09 -1.01)"/><polygon points="147.51 222.57 147.8 222.89 168.15 203.66 167.86 203.35 147.51 222.57"/><rect x="154.19" y="221.29" width="28.09" height="0.43" transform="translate(-62.91 376.83) rotate(-86.98)"/><polygon points="167.71 207.07 171.85 234.85 172.27 234.79 168.13 207 167.71 207.07"/><path d="M45.65,223.8a84,84,0,0,1-10.31-7.2A31.44,31.44,0,0,0,69.9,233.71,99.21,99.21,0,0,1,58.4,230,27.76,27.76,0,0,1,45.65,223.8Z" transform="translate(-1.09 -1.01)"/><path d="M95.6,201.2c0-18.3-14.31-33.14-32-33.14S31.69,182.9,31.69,201.2a34,34,0,0,0,3.65,15.4,84,84,0,0,0,10.31,7.2,29.68,29.68,0,0,1-10.26-22.6c0-16.19,12.65-29.3,28.25-29.3S91.9,185,91.9,201.2s-12.65,29.3-28.26,29.3a27.46,27.46,0,0,1-5.24-.5,99.21,99.21,0,0,0,11.5,3.71C84.55,230.69,95.6,217.29,95.6,201.2Z" transform="translate(-1.09 -1.01)"/><ellipse cx="62.5" cy="200.37" rx="1.02" ry="1.06"/><path d="M63.64,196.66A4.54,4.54,0,1,0,68,201.2,4.46,4.46,0,0,0,63.64,196.66Zm0,6.79a2.13,2.13,0,1,1,2.06-2.13A2.1,2.1,0,0,1,63.63,203.45Z" transform="translate(-1.09 -1.01)"/><polygon points="33.51 195.6 60.49 198.07 60.53 197.64 33.54 195.16 33.51 195.6"/><polygon points="33.01 200.84 33.06 201.27 59.98 198.08 59.93 197.65 33.01 200.84"/><polygon points="38.52 218.21 38.78 218.55 59.93 200.99 59.67 200.66 38.52 218.21"/><path d="M43,223.7l.32.28.86-1.07-.37-.22Z" transform="translate(-1.09 -1.01)"/><path d="M60.34,202.1,43.82,222.69l.37.22,16.47-20.53Z" transform="translate(-1.09 -1.01)"/><path d="M49.44,229.44l.38.19,1.3-2.86-.37-.19Z" transform="translate(-1.09 -1.01)"/><path d="M61.05,204.06l-10.3,22.52.37.19,10.31-22.53Z" transform="translate(-1.09 -1.01)"/><path d="M54.39,231.93l.4.1.76-3.2-.39-.17Z" transform="translate(-1.09 -1.01)"/><path d="M60.86,204.64l-5.7,24,.39.17,5.71-24.08Z" transform="translate(-1.09 -1.01)"/><polygon points="63.61 202.94 73.95 228.9 74.34 228.74 63.99 202.77 63.61 202.94"/><polygon points="63.89 203.48 79.06 226.77 79.4 226.52 64.24 203.24 63.89 203.48"/><path d="M63.62,232.55H64l0-.53-.42-.14Z" transform="translate(-1.09 -1.01)"/><path d="M62.94,204.46l.66,27.41L64,232l-.67-27.56Z" transform="translate(-1.09 -1.01)"/><polygon points="61.93 204.07 68.03 231.44 68.44 231.35 62.33 203.97 61.93 204.07"/><polygon points="64.46 202.58 85.36 220.46 85.63 220.12 64.73 202.25 64.46 202.58"/><polygon points="64.96 202.92 88.9 216.09 89.09 215.7 65.16 202.53 64.96 202.92"/><polygon points="64.72 201.97 90.91 209.13 91.02 208.71 64.82 201.55 64.72 201.97"/><polygon points="65.31 202.06 92.36 203.63 92.38 203.2 65.33 201.63 65.31 202.06"/><polygon points="64.19 198.7 64.36 199.1 89.13 187.71 88.97 187.32 64.19 198.7"/><polygon points="64.64 198.43 64.88 198.78 86.95 182.48 86.7 182.13 64.64 198.43"/><polygon points="64.57 199.34 91.64 200.31 91.66 199.88 64.58 198.91 64.57 199.34"/><polygon points="65.1 198.87 65.17 199.29 91.88 194.62 91.81 194.19 65.1 198.87"/><polygon points="63.6 197.26 63.91 197.55 82.26 176.88 81.95 176.59 63.6 197.26"/><polygon points="63.91 196.83 64.26 197.05 78.24 172.99 77.88 172.76 63.91 196.83"/><polygon points="62.05 197.46 62.44 197.6 70.9 170.91 70.51 170.77 62.05 197.46"/><polygon points="62.15 196.94 62.57 196.99 65.69 169.08 65.28 169.03 62.15 196.94"/><polygon points="51.82 170.3 61.29 196.62 61.68 196.47 52.21 170.15 51.82 170.3"/><polygon points="46.69 172.33 61.06 196.15 61.41 195.92 47.04 172.1 46.69 172.33"/><rect x="49.15" y="183.59" width="28.1" height="0.42" transform="translate(-122.26 244.31) rotate(-89.48)"/><polygon points="56.53 168.73 61.71 196.31 62.12 196.22 56.94 168.65 56.53 168.73"/><polygon points="44.07 174.18 60.8 196.28 61.12 196.01 44.4 173.91 44.07 174.18"/><polygon points="39.77 177.72 60.44 195.9 60.71 195.57 40.04 177.39 39.77 177.72"/><polygon points="39.24 182.79 61.85 198.28 62.08 197.91 39.48 182.43 39.24 182.79"/><polygon points="36.25 187.57 61.39 198.03 61.55 197.63 36.4 187.17 36.25 187.57"/><polygon points="33.63 209.26 33.78 209.66 58.92 199.17 58.76 198.77 33.63 209.26"/><polygon points="35.64 214.56 35.87 214.93 58.47 199.43 58.24 199.06 35.64 214.56"/><polygon points="83.28 161.7 83.31 164.78 148.02 165.23 147.98 162.15 83.28 161.7"/><polygon points="82.88 166.25 117.71 202.48 119.12 199.4 84.28 163.17 82.88 166.25"/><polygon points="63.4 202.32 117.29 200.94 117.32 198.53 63.43 199.92 63.4 202.32"/><polygon points="63.5 199.25 64.72 201.14 84.85 164.4 83.63 162.51 63.5 199.25"/><polygon points="81.42 155.86 82.82 166.84 85.93 166.05 84.52 155.07 81.42 155.86"/><polygon points="147.37 155.3 148.54 178.24 151.22 178.02 150.05 155.08 147.37 155.3"/><ellipse cx="117.38" cy="199.92" rx="6.39" ry="6.46" transform="translate(-107.64 258.93) rotate(-74.59)"/><ellipse cx="63.95" cy="200" rx="3.21" ry="3.56"/><path d="M83.35,152.55c-4.88.39-12-3.33-11.88,0s8.38,8.83,13.26,8.44,9.84-5.75,9.67-9.08S88.23,152.16,83.35,152.55Z" transform="translate(-1.09 -1.01)"/><polygon points="130.77 200.48 143.75 199.78 143.79 197.11 130.81 197.8 130.77 200.48"/><polygon points="117.65 203.1 136.25 200.46 137.26 197.79 118.66 200.43 117.65 203.1"/><path d="M165.58,203.1c1.1.9,2.17,1.72,3.16,2.49l1.7-1.67c-1-1-2.07-2-3.22-3.06C166.69,201.62,166.14,202.36,165.58,203.1Z" transform="translate(-1.09 -1.01)"/><path d="M153.83,179.81l-2.68.23c.53,10.33,8,17.85,14.43,23.06.56-.74,1.11-1.48,1.64-2.24C161.43,195.49,154.26,188.82,153.83,179.81Z" transform="translate(-1.09 -1.01)"/><polygon points="147.19 173.02 151.67 187.45 156.13 186.28 151.64 171.85 147.19 173.02"/><polygon points="116.71 197.4 117.75 199.63 149 165.81 147.97 163.58 116.71 197.4"/><polygon points="146.38 154.16 148.38 157.81 156.41 154.59 154.41 150.95 146.38 154.16"/><polygon points="162.88 145.95 154.14 152.87 155.87 154.47 164.61 147.54 162.88 145.95"/><ellipse cx="163.72" cy="144.9" rx="4.02" ry="3.44"/><path d="M105.83,192c-18.82,0-48.09,3.52-48.09,9s21.3,7.84,40.12,7.84,28-2.37,28-7.84S124.65,192,105.83,192Zm-7.65,15.68c-17.11,0-36.48-2-36.48-6.77s26.61-7.76,43.72-7.76,18.24,3,18.24,7.76S115.29,207.68,98.18,207.68Z" transform="translate(-1.09 -1.01)"/><polygon points="102.86 209.13 103.37 211.95 120.71 199.75 120.21 196.93 102.86 209.13"/><polygon points="98.77 211.91 100.05 215.19 111.45 214.71 110.17 211.43 98.77 211.91"/><path d="M100.44,89l-8.06-6.15c-3.12-2.38-6.9-2.68-8.44-.66L58.1,116.08c-1.54,2-.25,5.58,2.87,8L69,130.2c3.12,2.38,6.9,2.68,8.44.66L103.31,97C104.85,95,103.57,91.42,100.44,89Z" transform="translate(-1.09 -1.01)"/><path d="M108.22,168.2l-8.8.28,29,18-29.3,18.38s-.84,7.94,10.69,7.94,13.63-2.24,13.63-2.24l-12.79-1.43,4.61-6.72,15.4-13.72,4.6,2.57.65-3.39-2.73-1.83Z" transform="translate(-1.09 -1.01)"/><path d="M88.68,141.5S76.63,135,73,149c-1.27,5,28.66,34.52,28.66,34.52l17-20.13-6.68-.72Z" transform="translate(-1.09 -1.01)"/><polygon points="143.7 53.61 172.5 31.26 139.87 42.53 143.7 53.61"/><path d="M122.38,70.18c-.58,1.29-1.22,2.57-1.89,3.85a94.19,94.19,0,0,1,16.17,6.18C133.07,66.14,127.92,58,122.38,70.18Z" transform="translate(-1.09 -1.01)"/><path d="M104,166.25c25.09,0,37.78-20.18,37.78-45.27a185.55,185.55,0,0,0-5.1-40.77A94.19,94.19,0,0,0,120.49,74c-12.16,23.15-37.18,43.67-43.86,66.49C72.72,153.87,78.89,166.25,104,166.25Z" transform="translate(-1.09 -1.01)"/><path d="M149.25,49.33a30,30,0,1,0-51.53,20.8,107.66,107.66,0,0,1,32.37,7.16A30,30,0,0,0,149.25,49.33Z" transform="translate(-1.09 -1.01)"/><path d="M119.29,79.29a30,30,0,0,0,10.8-2,107.66,107.66,0,0,0-32.37-7.16A29.88,29.88,0,0,0,119.29,79.29Z" transform="translate(-1.09 -1.01)"/><path d="M132,123.58c-22.15-16.28-3.81-44.31-16.61-47.22C101.05,73.11,90.09,97,91,115.12c2.6,54.38,86.3,26.7,86.3,26.7S146.62,134.34,132,123.58Z" transform="translate(-1.09 -1.01)"/><path d="M94.15,69.92A18.56,18.56,0,0,0,64.05,75a111.07,111.07,0,0,1,30-5.09Z" transform="translate(-1.09 -1.01)"/><path d="M80.86,101.44A18.56,18.56,0,0,0,94.15,69.92H94A111.07,111.07,0,0,0,64.05,75a18.57,18.57,0,0,0,16.81,26.44Z" transform="translate(-1.09 -1.01)"/><path d="M112.53,30l-11.6,5.63c-7.71,3.73-15.81,2.95-18.1-1.76h0C80.55,29.12,81.25,24.34,89,20.6l9.42-1.82,6.07-6c7.71-3.74,15.63-2.87,17.91,1.84h0c.87,1.79,36.88-15.6,36-13.48-.54,1.3-37.48,22.08-38.56,23.33A22.8,22.8,0,0,1,112.53,30Z" transform="translate(-1.09 -1.01)"/></svg>