<?xml version="1.0" encoding="utf-8"?>
<!-- Generator: Adobe Illustrator 23.1.1, SVG Export Plug-In . SVG Version: 6.00 Build 0)  -->
<svg version="1.1" id="Layer_1" xmlns="http://www.w3.org/2000/svg" xmlns:xlink="http://www.w3.org/1999/xlink" x="0px" y="0px"
	 viewBox="0 0 1634.3 1314" style="enable-background:new 0 0 1634.3 1314;" xml:space="preserve">
<style type="text/css">
	.st0{opacity:0.8;}
	.st1{opacity:5.000000e-02;enable-background:new    ;}
	.st2{fill:#B3B4B4;}
	.st3{opacity:0.2;}
	.st4{fill:#010101;}
	.st5{opacity:0.5;}
	.st6{fill:#010101;stroke:#FFFFFF;stroke-miterlimit:10;}
	.st7{fill:#F99F33;}
	.st8{fill:#B7872D;}
	.st9{fill:#735321;}
	.st10{fill:#4E4E4E;}
	.st11{fill:#FFFFFF;}
	.st12{fill:#676767;}
	.st13{fill:#603A17;}
	.st14{fill:#5E3713;}
	.st15{fill:#5F4A1D;}
	.st16{fill:#8AC640;}
	.st17{fill:#FFD52F;}
	.st18{fill:#F99C21;}
	.st19{fill:#333333;}
	.st20{fill:#6FCCDD;}
	.st21{fill:#6ABD45;}
	.st22{fill:none;stroke:#F15A26;stroke-miterlimit:10;stroke-dasharray:5;}
	.st23{fill:#F15A26;}
	.st24{fill:none;}
	.st25{fill:#F2F2F3;}
	.st26{opacity:0.1;enable-background:new    ;}
	.st27{fill:none;stroke:#F79420;stroke-width:10;stroke-miterlimit:10;}
	.st28{fill:none;stroke:#F79420;stroke-width:10;stroke-miterlimit:10;stroke-dasharray:11.67,11.67;}
	.st29{fill:none;stroke:#F79420;stroke-width:10;stroke-miterlimit:10;stroke-dasharray:11.52,11.52;}
	.st30{fill:none;stroke:#F79420;stroke-width:10;stroke-miterlimit:10;stroke-dasharray:12.38,12.38;}
	.st31{fill:none;stroke:#F79420;stroke-width:10;stroke-miterlimit:10;stroke-dasharray:13.01,13.01;}
	.st32{fill:none;stroke:#F79420;stroke-width:10;stroke-miterlimit:10;stroke-dasharray:12.5,12.5;}
	.st33{fill:none;stroke:#F79420;stroke-width:10;stroke-miterlimit:10;stroke-dasharray:12.08,12.08;}
	.st34{fill:none;stroke:#F79420;stroke-width:10;stroke-miterlimit:10;stroke-dasharray:12.26,12.26;}
	.st35{fill:none;stroke:#F79420;stroke-width:10;stroke-miterlimit:10;stroke-dasharray:13.58,13.58;}
	.st36{fill:#F79420;}
	.st37{opacity:0.2;enable-background:new    ;}
	.st38{fill:#FBB03A;}
	.st39{opacity:0.3;fill:#FFFFFF;enable-background:new    ;}
</style>
<image style="overflow:visible;" width="7117" height="5789" xlink:href="3D38E3CA907F23F8.jpg"  transform="matrix(0.24 0 0 0.24 -36.8382 -39.11)">
</image>
<title>birdBikeMap</title>
<g class="st0">
	<g transform="translate(650.17 784.4)">
		
			<image style="overflow:visible;enable-background:new    ;" width="554" height="221" id="image" xlink:href="3D38E3CA907F23F8.png"  transform="matrix(1 0 0 1 613.3317 124)">
		</image>
	</g>
</g>
<path class="st1" d="M1595.3,1202c-61,181.1-699.5,74.7-1102-59c-292-97-537-278.9-476-460s484.1,7.5,886,143
	S1656.3,1020.9,1595.3,1202z"/>
<path class="st2" d="M459.9,1082.6c0,0,215-98.6,230.8-109.6c24.3-16.9,77.3-49,96.3-82.9c10.1-18.1,787.2,202.9,824.2,91.9
	c0,0,19,2,2.8,55.2c-39.6,129.5-158.8,195.3-200.1,199.7S361.5,1119.2,459.9,1082.6z"/>
<g class="st3">
	<path class="st4" d="M375.6,818.2l24.8,4.5l12.6,2.6l3.3,1.2l-8.1,0.2l-7.5,12.6c0,0,46.3,8.4,55.1,2.4s5.1,1.6,5.1,1.6
		s-37.8,5.4-56,1.8s-12.5-6.4-12.5-6.4l5-13.6l-26.5-3.5L375.6,818.2z"/>
	<polygon class="st4" points="306.8,804.2 368.6,814.7 389.3,814.8 371.9,829.2 299.6,817.4 	"/>
	<path class="st4" d="M225.1,776.4c-10.6,13,80.9,16.9,116.2,14.6s62-8.7,43.9-17.8c0,0-26,4.5-61.3,6.7S234.2,765.2,225.1,776.4z"
		/>
	<path class="st4" d="M450.3,822.9c2.9,14.2,54.4,32.8,115,41.6s107.3,4.3,104.4-9.9s-54.4-32.8-115-41.6S447.3,808.7,450.3,822.9z
		 M656.9,852.8c2.6,12.6-38.7,16.5-92.3,8.7s-99.1-24.2-101.6-36.8s38.7-16.5,92.3-8.7C608.8,823.7,654.3,840.2,656.9,852.8
		L656.9,852.8z"/>
	<path class="st4" d="M544.9,836.6c0.4,2,7.5,4.5,15.7,5.7s14.7,0.6,14.3-1.3s-7.5-4.5-15.7-5.7S544.5,834.6,544.9,836.6z
		 M567.4,839.8c0.2,0.9-2.8,1.2-6.7,0.6s-7.2-1.8-7.4-2.7s2.8-1.2,6.7-0.6S567.2,838.9,567.4,839.8z M564.1,839.4
		c0.1,0.5-1.4,0.6-3.3,0.3s-3.6-0.9-3.7-1.3s1.4-0.6,3.3-0.3S564,838.9,564.1,839.4z"/>
	<polygon class="st4" points="549.6,859.9 553.3,839.4 551.8,839.2 548.1,859.7 	"/>
	<polygon class="st4" points="568.4,863 553.4,839.8 552,839.6 567,862.8 	"/>
	<polygon class="st4" points="624.7,866.7 563.1,841.2 562,841.3 623.6,866.7 	"/>
	<polygon class="st4" points="638.7,866 564.4,841.7 563.5,841.8 637.8,866.1 	"/>
	<polygon class="st4" points="656.3,863.5 570.4,842 569.8,842.2 655.8,863.7 	"/>
	<polygon class="st4" points="663.4,860.6 572.1,842.4 571.8,842.6 663.2,860.9 	"/>
	<polygon class="st4" points="652.5,842.9 568.3,838.8 568.9,839.2 653.1,843.3 	"/>
	<polygon class="st4" points="644.3,837.8 569.8,838.8 570.6,839.2 645.2,838.2 	"/>
	<polygon class="st4" points="663.6,853.4 570.8,840.5 570.9,840.9 663.7,853.8 	"/>
	<polygon class="st4" points="662.1,848.9 572.5,840.7 572.9,841.1 662.5,849.3 	"/>
	<polygon class="st4" points="622.1,829.7 566.4,838 567.5,838.3 623.2,830.1 	"/>
	<polygon class="st4" points="606.9,824.8 567.3,837.8 568.6,838.1 608.2,825.1 	"/>
	<polygon class="st4" points="583.4,819.9 564.1,837.6 565.5,837.8 584.8,820.2 	"/>
	<polygon class="st4" points="565,816.2 564.3,837.2 565.7,837.4 566.4,816.4 	"/>
	<polygon class="st4" points="513,811.3 554.8,836.7 556,836.8 514.3,811.4 	"/>
	<polygon class="st4" points="496.2,810.7 553.8,836.2 554.9,836.2 497.3,810.6 	"/>
	<polygon class="st4" points="554.1,815.2 555.4,836.5 556.8,836.7 555.5,815.4 	"/>
	<polygon class="st4" points="535.3,812.3 555.2,836 556.6,836.2 536.6,812.5 	"/>
	<polygon class="st4" points="478.6,811.8 550.1,836.5 551,836.4 479.6,811.7 	"/>
	<polygon class="st4" points="466.7,813.3 548.6,836 549.3,835.9 467.3,813.1 	"/>
	<polygon class="st4" points="461.3,818.2 551,837.8 551.4,837.6 461.7,818 	"/>
	<polygon class="st4" points="456.4,821.6 549.3,837.5 549.4,837.2 456.5,821.3 	"/>
	<polygon class="st4" points="462.8,833.1 548.4,838 547.8,837.7 462.3,832.7 	"/>
	<polygon class="st4" points="470.4,838.2 546.8,838 546,837.6 469.6,837.8 	"/>
	<polygon class="st4" points="456,824.1 549,837.8 548.9,837.4 455.9,823.8 	"/>
	<polygon class="st4" points="456.8,828.5 547.2,837.5 546.9,837.2 456.5,828.2 	"/>
	<polygon class="st4" points="476.9,841.2 547.3,838.3 546.4,837.9 476,840.8 	"/>
	<polygon class="st4" points="489.4,846.3 546.1,838.4 545,838 488.3,845.9 	"/>
	<polygon class="st4" points="506.2,849.2 553.7,838.4 552.5,838 505,848.8 	"/>
	<polygon class="st4" points="522.5,853.9 553,838.6 551.7,838.3 521.2,853.5 	"/>
	<polygon class="st4" points="596,866.4 557.2,841.2 555.9,841.1 594.7,866.4 	"/>
	<polygon class="st4" points="613.1,867.3 558.1,841.7 556.9,841.7 612,867.3 	"/>
	<g class="st5">
		<path class="st4" d="M458.3,824.2c2.8,13.4,51,30.9,107.7,39.1s100.4,4,97.7-9.4s-51-30.9-107.7-39.1S455.5,810.8,458.3,824.2z
			 M659.1,853c2.7,13.1-40.1,17.2-95.5,9.1S461.1,837.1,458.3,824s40-17.2,95.5-9.2S656.4,840,659.1,853z"/>
	</g>
	<path class="st4" d="M184.8,794.1c-52.1-1.9-71.5,10-43.3,26.6s93.3,31.6,145.4,33.5s71.5-10,43.3-26.6S236.9,796,184.8,794.1z
		 M281,850.7c-46.1-1.7-103.7-14.9-128.6-29.6s-7.8-25.2,38.3-23.5s103.6,14.9,128.6,29.6S327.1,852.4,281,850.7L281,850.7z"/>
	<path class="st4" d="M228.9,820c-7.1-0.3-9.8,1.4-5.9,3.6s12.8,4.3,19.9,4.6s9.8-1.4,5.9-3.6S236,820.3,228.9,820z M239.3,826.2
		c-3.3-0.1-7.5-1.1-9.3-2.2s-0.6-1.8,2.8-1.7s7.5,1.1,9.4,2.1S242.6,826.3,239.3,826.2z M237.6,825.3c-1.6,0-3.2-0.4-4.6-1.1
		c-0.9-0.5-0.3-0.9,1.4-0.8c1.6,0,3.2,0.4,4.6,1.1C239.9,825,239.3,825.3,237.6,825.3z"/>
	<polygon class="st4" points="143,816.9 226.5,822 225.9,821.6 142.4,816.5 	"/>
	<polygon class="st4" points="150.4,822 225,822 224.2,821.6 149.6,821.6 	"/>
	<polygon class="st4" points="193.9,838.2 229.4,824.6 228.1,824.3 192.7,837.9 	"/>
	<polygon class="st4" points="211,842.6 228.9,824.9 227.5,824.6 209.6,842.3 	"/>
	<polygon class="st4" points="238.8,848.4 234,826.7 232.6,826.5 237.4,848.2 	"/>
	<polygon class="st4" points="257.2,851.1 234.3,827.1 232.9,827 255.9,851 	"/>
	<polygon class="st4" points="314.6,851.3 244.1,826.7 243.2,826.8 313.8,851.4 	"/>
	<polygon class="st4" points="326.2,849.8 245.5,827.1 244.9,827.3 325.5,850 	"/>
	<polygon class="st4" points="285.3,852.6 240,827.1 238.8,827 284.1,852.5 	"/>
	<polygon class="st4" points="301.2,853 241,827.6 240,827.6 300.2,853 	"/>
	<polygon class="st4" points="334.7,844.7 245.4,826.2 245.2,826.5 334.4,845 	"/>
	<polygon class="st4" points="338.1,841.1 247.2,826.6 247.2,826.9 338.1,841.4 	"/>
	<polygon class="st4" points="333,834.9 244.7,825.6 245,826 333.4,835.3 	"/>
	<polygon class="st4" points="328.6,830.1 246.3,825.8 246.9,826.1 329.2,830.5 	"/>
	<polygon class="st4" points="294,815.3 238.4,823 239.5,823.4 295.1,815.7 	"/>
	<polygon class="st4" points="279.3,810.4 239.3,822.8 240.6,823.1 280.6,810.7 	"/>
	<polygon class="st4" points="321.3,827 239.9,823.2 240.5,823.6 321.9,827.4 	"/>
	<polygon class="st4" points="313,821.9 241.3,823.2 242.2,823.6 313.9,822.2 	"/>
	<polygon class="st4" points="256.8,804.9 234.4,821.6 235.8,821.9 258.1,805.2 	"/>
	<polygon class="st4" points="238.9,801 234.7,821.3 236.1,821.5 240.3,801.2 	"/>
	<polygon class="st4" points="214,798.4 230.2,821.6 231.5,821.8 215.4,798.5 	"/>
	<polygon class="st4" points="195.9,796.2 229.7,821.2 231,821.2 197.2,796.3 	"/>
	<polygon class="st4" points="158.1,795.9 226.6,820.8 227.6,820.7 159,795.8 	"/>
	<polygon class="st4" points="146.1,797.2 225.2,820.3 225.9,820.2 146.8,797 	"/>
	<polygon class="st4" points="185.8,795.6 228.4,821 229.6,821.1 187.1,795.7 	"/>
	<polygon class="st4" points="169.6,795 227.4,820.5 228.5,820.5 170.7,795 	"/>
	<polygon class="st4" points="141.2,798.6 224.6,820.4 225.2,820.2 141.7,798.4 	"/>
	<polygon class="st4" points="134,801.4 223,820 223.3,819.8 134.3,801.1 	"/>
	<polygon class="st4" points="140.2,805.9 230.8,822.3 231,822 140.3,805.6 	"/>
	<polygon class="st4" points="138.7,809.9 229.1,822.1 228.9,821.7 138.6,809.5 	"/>
	<polygon class="st4" points="165.5,829.6 223.6,822.8 222.5,822.5 164.4,829.3 	"/>
	<polygon class="st4" points="179.8,834.6 222.6,823 221.4,822.7 178.5,834.3 	"/>
	<g class="st5">
		<path class="st4" d="M187.6,796.3c-49.2-1.8-67.6,9.3-41.2,24.9s87.7,29.5,136.8,31.3s67.6-9.3,41.2-24.9S236.8,798.1,187.6,796.3
			z M282.2,851.3c-47.9-1.7-107.7-15.5-133.6-30.6s-7.9-26,40.1-24.3s107.8,15.5,133.6,30.7S330.1,853,282.2,851.3L282.2,851.3z"/>
	</g>
	<polygon class="st4" points="434.3,801.7 242.6,794.3 237.7,791.5 429.5,798.9 	"/>
	<polygon class="st4" points="401.7,829.5 243,792.9 243.6,795.6 402.3,832.2 	"/>
	<polygon class="st4" points="238,824 395,828.5 398.6,830.7 241.6,826.2 	"/>
	<polygon class="st4" points="240,792.3 246.5,794.1 243.7,825.2 237.2,823.4 	"/>
	<polygon class="st4" points="252.3,795.7 244.3,796.1 223.2,786 231.2,785.7 	"/>
	<polygon class="st4" points="463.5,813.6 455.9,813.5 417.1,792.6 424.7,792.7 	"/>
	
		<ellipse transform="matrix(0.1594 -0.9872 0.9872 0.1594 -488.2454 1084.2606)" class="st4" cx="392.5" cy="828.8" rx="4.8" ry="21.8"/>
	
		<ellipse transform="matrix(0.1817 -0.9834 0.9834 0.1817 -614.282 910.127)" class="st4" cx="239.7" cy="824.2" rx="2.6" ry="11.1"/>
	<path class="st4" d="M250.7,782.8c5.6,3-0.8,7.4-14.6,7.2s-46.5-6-52.2-9.1s21.3,1.1,35.1,1.3S245.1,779.8,250.7,782.8z"/>
	<polygon class="st4" points="447.5,823.8 410.2,823 406.2,820.6 443.4,821.3 	"/>
	<polygon class="st4" points="429.4,823.7 400.1,831.7 394.9,829 424.2,821.1 	"/>
	<path class="st4" d="M555.4,838.1l-2.5,1.3c-27.9-5.4-70.8-14-91.3-25l7.6,0.1C487.3,824.3,528.9,832.1,555.4,838.1z"/>
	<polygon class="st4" points="490.7,821.6 479.4,822.2 443.9,808.6 455.2,808 	"/>
	<polygon class="st4" points="398,829.6 391.5,827.4 431.6,800.2 438.1,802.3 	"/>
	<polygon class="st4" points="442.7,792.9 424,795 412.4,791.5 431.2,789.4 	"/>
	<polygon class="st4" points="440.9,792.8 456.1,787.4 448.5,785.8 433.4,791.1 	"/>
	
		<ellipse transform="matrix(0.1324 -0.9912 0.9912 0.1324 -388.1668 1126.5143)" class="st4" cx="449.4" cy="785" rx="2.6" ry="13.1"/>
	<path class="st4" d="M346.2,820.3c-55.6-2-136.6-2-128.1,3s75,9.4,130.6,11.4s79.1,0.9,70.7-4.1S401.8,822.4,346.2,820.3z
		 M347.8,833.7c-50.5-1.8-110.9-5.7-118.1-10.1s66.6-4.2,117.1-2.3s58.5,4.7,65.8,9S398.3,835.6,347.8,833.7L347.8,833.7z"/>
	<polygon class="st4" points="406.9,830 374.5,839.2 368.7,836.6 401.1,827.4 	"/>
	<polygon class="st4" points="391.4,839.7 358.4,838.9 349.6,835.8 382.5,836.5 	"/>
	<path class="st4" d="M194.4,757.6l-23,24.7c-1.4,1.5-11.4,1.5-22.4,0l-28.4-3.8c-11-1.5-18.8-3.8-17.4-5.3l23-24.7
		c1.4-1.5,11.4-1.5,22.4,0l28.4,3.8C188,753.8,195.8,756.2,194.4,757.6z"/>
	<path class="st4" d="M188.6,760.8l-19.1,20.5c-1.1,1.2-9.5,1.2-18.6,0l-23.6-3.1c-9.1-1.2-15.6-3.2-14.5-4.4l19.1-20.5
		c1.1-1.2,9.4-1.2,18.6,0l23.6,3.1C183.3,757.6,189.8,759.6,188.6,760.8z"/>
	<path class="st4" d="M275.3,806.9l100.5,12.6l-47.8,16.3c0,0,9.5,6.3,39,5.7s31.5-2.6,31.5-2.6l-34.8-0.4l1.9-5.6l19.2-11.8
		l15.5,1.8l-3.3-2.7l-9.6-1.3l-90-12.7L275.3,806.9z"/>
	<path class="st4" d="M183.1,795c3.1,3.5,117,22,117,22l18-14.8l-18-0.1L213.5,789C213.5,789,174.5,785.2,183.1,795z"/>
	<polygon class="st6" points="246.6,726.2 291.8,709.2 222.7,718.8 	"/>
	<path class="st4" d="M323,771.8c31.9,17.2,25.1,31.8-39,33.2s-95.5-6.7-102.5-16c-12.6-16.9,30.3-33.2,27.6-50.9
		C206.6,721.9,291.2,754.7,323,771.8z"/>
	
		<ellipse transform="matrix(9.306565e-02 -0.9957 0.9957 9.306565e-02 -562.4007 830.5884)" class="st4" cx="174.7" cy="724" rx="19.1" ry="85.8"/>
	
		<ellipse transform="matrix(9.306565e-02 -0.9957 0.9957 9.306565e-02 -542.8563 834.538)" class="st4" cx="186.7" cy="715.3" rx="4.7" ry="21"/>
	
		<ellipse transform="matrix(9.323946e-02 -0.9956 0.9956 9.323946e-02 -537.968 836.0631)" class="st4" cx="190" cy="713.4" rx="1.7" ry="7.5"/>
	<path class="st4" d="M319.3,775.1c21.1,11.4,16.6,21-25.9,22s-63.3-4.4-67.9-10.6c-8.3-11.2,20.1-22,18.3-33.7
		C242.1,742,298.2,763.7,319.3,775.1z"/>
	<path class="st4" d="M199.1,742.8c36.4,1.3,25.1,21.5,102.3,31.4c51,6.5,138.8,9.9,138.8,9.9s-178.6,23.8-254.3-13.3
		C160.6,758.4,158.3,741.4,199.1,742.8z"/>
	
		<ellipse transform="matrix(9.306565e-02 -0.9957 0.9957 9.306565e-02 -637.8748 798.0988)" class="st4" cx="119.2" cy="749.2" rx="11.8" ry="53.2"/>
	
		<ellipse transform="matrix(9.323946e-02 -0.9956 0.9956 9.323946e-02 -638.1852 798.0775)" class="st4" cx="119.1" cy="749.4" rx="8.6" ry="38.5"/>
	
		<ellipse transform="matrix(9.306565e-02 -0.9957 0.9957 9.306565e-02 -635.7493 800.5424)" class="st4" cx="121.6" cy="749.2" rx="5.9" ry="26.4"/>
	
		<ellipse transform="matrix(9.306565e-02 -0.9957 0.9957 9.306565e-02 -635.9335 800.627)" class="st4" cx="121.5" cy="749.4" rx="4.2" ry="19.1"/>
	<path class="st4" d="M132.9,711.1l-22.5,4.5c-15,3-36.6,2.9-48.4-0.2l0,0c-11.8-3.1-16.1-6.4-1.1-9.4l21.7-1.8l8-4.4
		c15-3,36.3-2.9,48.1,0.2l0,0c4.5,1.2,74.4-12.8,74.8-11.3c0.3,0.9-67.7,17.3-68.9,18.2C142.6,708.5,138.7,710,132.9,711.1z"/>
</g>
<path class="st7" d="M547.7,646.2l14.1,28.1l6.6,15.3l0.7,6l-7.9-2.7L530,737.2c0,0,26.2,52.7,46.1,33.7s1.7,8.2,1.7,8.2
	s-45.3,3.6-55.1-18.2s1-30,1-30l31-49.3L537,656.7L547.7,646.2z"/>
<polygon class="st8" points="511.5,562.3 548.1,629.7 567,639.3 522.9,686.3 479.2,609.1 "/>
<path class="st9" d="M490.1,420.5c-35,44.5,41.7,100.3,78.6,107.6s74-5.3,75-47.9c-23.1,3-46.6,2.3-69.5-2.1
	C537.3,470.8,520.3,382.1,490.1,420.5z"/>
<path class="st10" d="M553.3,755.7c-25.7,47.9-10.8,114.7,33.3,149.1s100.6,23.6,126.3-24.3s10.8-114.6-33.3-149.1
	S579,707.8,553.3,755.7z M703.7,873.3c-22.7,42.3-72.7,52-111.7,21.5s-52.2-89.5-29.5-131.9s72.8-51.9,111.7-21.5
	S726.4,831,703.7,873.3L703.7,873.3z"/>
<path class="st10" d="M622.2,809.6c-3.5,6.6-1.5,15.7,4.6,20.4s13.8,3.2,17.3-3.3s1.5-15.7-4.6-20.4S625.7,803,622.2,809.6z
	 M638.5,822.4c-1.3,2.6-4.5,3.6-7,2.3c-0.4-0.2-0.8-0.4-1.1-0.7c-2.9-2.3-3.7-6.3-2.1-9.6c1.3-2.6,4.5-3.6,7-2.3
	c0.4,0.2,0.8,0.4,1.1,0.7C639.3,815.1,640.1,819.1,638.5,822.4z M636.1,820.6c-0.6,1.3-2.2,1.8-3.5,1.1c-0.2-0.1-0.4-0.2-0.5-0.4
	c-1.4-1.1-1.9-3.1-1.1-4.8c0.6-1.3,2.2-1.8,3.5-1.1c0.2,0.1,0.4,0.2,0.5,0.4C636.4,817,636.8,819,636.1,820.6L636.1,820.6z"/>
<polygon class="st10" points="579.8,888.3 625,819.7 624,818.8 578.8,887.3 "/>
<polygon class="st10" points="592.8,900.2 624.3,821.1 623.2,820.4 591.7,899.5 "/>
<polygon class="st10" points="642.8,917.2 631.3,826.7 630.1,826.8 641.6,917.3 "/>
<polygon class="st10" points="658.4,916.1 631.6,828.4 630.5,828.8 657.3,916.5 "/>
<polygon class="st10" points="681.5,909.2 637.3,829.9 636.3,830.5 680.5,909.8 "/>
<polygon class="st10" points="694.5,900.2 638.2,831.3 637.4,832.2 693.7,901.1 "/>
<polygon class="st10" points="641.3,820.5 641.5,819.1 719.1,840 718.9,841.3 "/>
<polygon class="st10" points="721.1,822 642.9,819.3 643,820.7 721.2,823.4 "/>
<polygon class="st10" points="709.2,876.1 640.6,825 640,826.2 708.6,877.2 "/>
<polygon class="st10" points="716.7,860.8 641.9,825.8 641.6,827.1 716.4,862.1 "/>
<polygon class="st10" points="714.7,793.1 641.3,816.1 641.7,817.4 715.2,794.4 "/>
<polygon class="st10" points="709.1,775.3 642.6,815.5 643.2,816.7 709.8,776.6 "/>
<polygon class="st10" points="695.1,756.9 639.7,814.5 640.6,815.6 696,758 "/>
<polygon class="st10" points="683.8,742.9 640.7,813.3 641.7,814.2 684.8,743.7 "/>
<polygon class="st10" points="631.9,810.9 640.6,722.2 641.8,722.5 633.1,811.1 "/>
<polygon class="st10" points="624.8,718.6 631.9,809.2 633.1,809.2 626,718.6 "/>
<polygon class="st10" points="674.8,738.6 633,810.2 634,811 675.8,739.4 "/>
<polygon class="st10" points="661.3,727.4 633.7,808.7 634.8,809.3 662.4,728 "/>
<polygon class="st10" points="604.5,721 627.6,809.8 628.8,809.5 605.7,720.8 "/>
<polygon class="st10" points="589.4,724.9 627,808.1 628.1,807.6 590.5,724.3 "/>
<polygon class="st10" points="573.9,741.1 625.8,814.3 626.7,813.5 574.8,740.3 "/>
<polygon class="st10" points="562.1,752 624.7,813.1 625.4,812 562.8,751 "/>
<polygon class="st10" points="545.5,790.9 622.7,814.8 622.9,813.5 545.7,789.6 "/>
<polygon class="st10" points="542.9,808.7 621.2,814.5 621.2,813.2 542.9,807.3 "/>
<polygon class="st10" points="556.6,760.3 623.9,813.9 624.5,812.8 557.2,759.2 "/>
<polygon class="st10" points="548.6,775.2 622.6,813.1 623,811.8 549,773.9 "/>
<polygon class="st10" points="543.6,819.2 621.2,815.5 621,814.1 543.4,817.9 "/>
<polygon class="st10" points="545.9,837.6 619.7,815.8 619.3,814.4 545.5,836.2 "/>
<polygon class="st10" points="557.3,848.6 627.5,816.4 627,815.1 556.8,847.3 "/>
<polygon class="st10" points="564.5,865.7 626.3,817.2 625.5,816 563.7,864.5 "/>
<polygon class="st10" points="612.9,913.7 624.2,825.7 625.4,826.1 614.1,914 "/>
<polygon class="st10" points="629.8,918.2 625.3,827.8 624.1,827.7 628.6,918.2 "/>
<g class="st5">
	<path class="st11" d="M624.8,918c-12.9-2.9-24.9-8.7-35.3-17c-39.2-30.7-53.6-89.2-33.9-133.6c-18.5,43.3-4.3,99.9,33.8,129.7
		c10.1,8.1,22,13.8,34.6,16.7c32.8,7.1,64.7-8.3,81.4-39.3c23.6-44,10-105.5-30.3-137.1c-10.1-8.1-22-13.8-34.6-16.7
		c-5.3-1.2-10.7-1.7-16.2-1.7c5.9-0.1,11.8,0.5,17.6,1.7c12.9,2.9,25,8.7,35.3,17c41.2,32.2,55,95,30.8,140
		C691,909.5,658.3,925.3,624.8,918z"/>
	<path class="st11" d="M641.9,720.9c12.9,2.9,24.9,8.7,35.2,16.9c41.1,32.1,54.9,94.9,30.8,139.9c-8.5,15.9-21,28-36,35.1
		c-14.7,6.9-31.3,8.7-47.1,5.1c-12.9-2.9-24.9-8.7-35.2-16.9c-34.8-27.2-50-76.5-39.2-118.2c-9.9,40.6,5.2,88.1,39,114.5
		c10.1,8.1,22,13.8,34.7,16.7c15.5,3.5,31.8,1.7,46.2-5c14.7-6.9,26.9-18.8,35.2-34.3c23.7-44.1,10.1-105.7-30.3-137.3
		c-10.2-8.1-22-13.8-34.7-16.7l-0.3-0.1C640.8,720.7,641.4,720.8,641.9,720.9 M642,720.7c-13.6-3.1-27.8-2.2-41,2.5
		c12.7-4.4,26.4-5.2,39.6-2.3c12.6,2.9,24.5,8.5,34.6,16.6c40.4,31.5,53.9,92.8,30.2,136.9c-17.2,32.1-49.4,46.2-81.3,39.3
		c-12.6-2.9-24.4-8.6-34.5-16.7c-40.3-31.5-53.9-92.8-30.2-136.8c2.6-4.9,5.6-9.5,9.1-13.7c-3.7,4.5-7,9.4-9.8,14.6
		c-24.2,45.2-10.4,108,30.8,140.2c10.3,8.3,22.4,14.1,35.3,17c32.6,7.1,65.6-7.4,83.3-40.3c24.2-45.2,10.4-108-30.8-140.2
		C666.9,729.4,654.9,723.6,642,720.7L642,720.7z M601,723.2c-12.8,4.6-24.1,12.6-32.6,23.2C577,735.9,588.2,727.9,601,723.2z"/>
</g>
<path class="st10" d="M340.5,637.1c-49.3-10.7-93.1,27.5-97.8,85.5s31.5,113.6,80.8,124.4s93.1-27.5,97.8-85.5
	S389.8,647.8,340.5,637.1z M324.5,834.8c-43.6-9.5-75.6-58.7-71.5-110c4.1-51.3,42.9-85.1,86.5-75.6s75.6,58.7,71.5,110
	S368.1,844.3,324.5,834.8z"/>
<path class="st10" d="M333.2,727.6c-6.8-1.5-12.8,3.8-13.4,11.7s4.3,15.6,11.1,17s12.8-3.8,13.4-11.7S339.9,729.1,333.2,727.6z
	 M331.4,749.1c-3.2-0.7-5.5-4.3-5.2-8s3.1-6.2,6.3-5.5s5.5,4.3,5.2,8S334.6,749.8,331.4,749.1L331.4,749.1z M331.5,745.9
	c-1.7-0.5-2.8-2.2-2.6-4c0.1-1.8,1.5-3.1,3.1-2.7c1.7,0.5,2.8,2.2,2.6,4C334.5,745,333.1,746.2,331.5,745.9L331.5,745.9z"/>
<polygon class="st10" points="252,709.8 326.8,734 327,732.7 252.2,708.4 "/>
<polygon class="st10" points="249.3,727.5 325.4,733.8 325.3,732.4 249.3,726.1 "/>
<polygon class="st10" points="260.9,785.7 324.5,742.9 323.8,741.7 260.2,784.4 "/>
<polygon class="st10" points="269.4,801.8 323.4,743.9 322.5,742.8 268.6,800.7 "/>
<polygon class="st10" points="286.1,823.6 325,750.3 324,749.5 285.1,822.8 "/>
<polygon class="st10" points="299.4,834.2 324.4,751.8 323.3,751.2 298.3,833.7 "/>
<polygon class="st10" points="357.6,839.6 335.4,751 334.2,751.3 356.5,839.8 "/>
<polygon class="st10" points="372.4,835.6 335.9,752.7 334.9,753.2 371.3,836.2 "/>
<polygon class="st10" points="325.1,841.5 330.4,752.1 329.2,751.9 323.9,841.3 "/>
<polygon class="st10" points="340.5,844.2 330.4,753.8 329.3,753.9 339.3,844.3 "/>
<polygon class="st10" points="391.4,819.1 337.6,749.8 336.7,750.7 390.6,820 "/>
<polygon class="st10" points="402.2,807.3 338.7,751 338.1,752.1 401.6,808.3 "/>
<polygon class="st10" points="409.4,786.3 338,747.7 337.6,748.9 409,787.5 "/>
<polygon class="st10" points="414.6,769.7 339.4,748.2 339.2,749.6 414.4,771 "/>
<polygon class="st10" points="409.1,717.3 337,738.3 337.3,739.6 409.5,718.7 "/>
<polygon class="st10" points="404.1,699.5 338.3,737.7 338.9,739 404.7,700.8 "/>
<polygon class="st10" points="413.4,758.7 338,739.2 337.9,740.5 413.3,760.1 "/>
<polygon class="st10" points="415.3,740.8 339.5,739.4 339.5,740.8 415.4,742.2 "/>
<polygon class="st10" points="392.3,679.1 335.7,733.4 336.5,734.5 393.1,680.2 "/>
<polygon class="st10" points="381.9,664.5 336.7,732.2 337.6,733.1 382.8,665.4 "/>
<polygon class="st10" points="361.8,653.7 331.3,733 332.4,733.7 362.9,654.3 "/>
<polygon class="st10" points="347.6,645 331.7,731.5 332.9,731.9 348.8,645.4 "/>
<polygon class="st10" points="309.7,640.8 329.4,729.9 330.5,729.7 310.8,640.6 "/>
<polygon class="st10" points="294.8,644.1 328.9,728.3 329.9,727.8 295.8,643.6 "/>
<polygon class="st10" points="330.7,730.9 338.6,642.1 339.8,642.3 331.8,731.2 "/>
<polygon class="st10" points="323.2,638.7 330.7,729.2 331.8,729.2 324.4,638.7 "/>
<polygon class="st10" points="287,648.4 328.1,728.5 329.1,727.9 288,647.7 "/>
<polygon class="st10" points="274.1,657 327.2,727.1 328,726.2 274.9,656.1 "/>
<polygon class="st10" points="271.3,672.7 330.5,735.5 331.3,734.5 272.1,671.7 "/>
<polygon class="st10" points="261.7,686 329.3,734.5 329.9,733.3 262.3,684.9 "/>
<polygon class="st10" points="249.2,754.5 322.1,736.6 321.8,735.2 248.8,753.1 "/>
<polygon class="st10" points="253.7,772.4 320.8,737.1 320.2,735.8 253.1,771.2 "/>
<g class="st5">
	<path class="st11" d="M339.1,644.5c-46.5-10.1-87.8,25.7-92.2,79.9s29.8,106.4,76.3,116.6s87.8-25.7,92.2-79.9
		S385.6,654.6,339.1,644.5z M324.5,836.9C279.1,827,245.8,776,250.1,723s44.6-88,89.9-78.2s78.7,60.9,74.4,113.9
		S369.9,846.8,324.5,836.9z"/>
</g>
<polygon class="st12" points="579.8,683.3 399.1,642.5 399.8,632.7 580.5,673.5 "/>
<polygon class="st12" points="490.3,773.9 402.2,638 397.5,646.9 485.6,782.8 "/>
<polygon class="st12" points="334.5,741.7 485.5,770 484.8,777.6 333.8,749.3 "/>
<polygon class="st12" points="400.6,635.5 403.5,642.2 337.8,746.3 334.9,739.6 "/>
<polygon class="st12" points="406.1,648.1 397.2,648.7 396.1,613.1 405,612.5 "/>
<polygon class="st12" points="585.5,725.7 578,724.8 580.6,651.4 588.1,652.3 "/>
<ellipse transform="matrix(0.9429 -0.333 0.333 0.9429 -229.0826 204.6405)" class="st12" cx="482.5" cy="770.7" rx="17.7" ry="21"/>
<ellipse transform="matrix(0.9901 -0.14 0.14 0.9901 -100.7269 54.1823)" class="st12" cx="334.7" cy="742.9" rx="8.9" ry="11.5"/>
<path class="st13" d="M430.6,604.6c-0.4,10.7-15.6,24.6-29.4,22.9s-35.3-24.1-34.9-34.8s19.5,5.5,33.2,7.2S431,594,430.6,604.6z"/>
<polygon class="st13" points="559,790.1 522.6,784.4 523.4,775.9 559.9,781.6 "/>
<polygon class="st12" points="537.9,787.7 485.3,784.7 488.8,776.9 541.4,779.8 "/>
<path class="st12" d="M629.8,815.5l-5.2,4.2c-17.5-20.5-44-52.9-42.6-91.6l7.5,0.9C588.2,763.6,614.8,793.3,629.8,815.5z"/>
<polygon class="st12" points="597.1,754.8 584.4,755.8 575.5,707.4 588.3,706.4 "/>
<polygon class="st12" points="486.4,773.8 484.1,766.1 580.1,678 582.4,685.7 "/>
<polygon class="st12" points="606,654.7 582.7,660 578.1,647.2 601.4,641.9 "/>
<polygon class="st12" points="604.5,653.9 630.7,637.3 626.3,631.2 600.1,647.8 "/>
<ellipse transform="matrix(0.681 -0.7323 0.7323 0.681 -259.5483 661.0625)" class="st13" cx="628.9" cy="628.4" rx="10.4" ry="12"/>
<path class="st10" d="M452.3,738.5c-52.6-11.5-135.3-18.1-136.7-0.8s57.5,37.8,110.1,49.3s78.9,9.5,80.3-7.8S504.9,750,452.3,738.5z
	 M426.9,783.5c-47.8-10.4-101.4-28.6-100.2-43.6s76.4-8.4,124.2,2s50.2,20.7,49,35.7S474.7,793.9,426.9,783.5L426.9,783.5z"/>
<polygon class="st12" points="494.7,776 443.1,804.1 442.4,794.8 494,766.7 "/>
<polygon class="st13" points="465,817.7 433,812.3 430.2,801.1 462.2,806.5 "/>
<path class="st14" d="M417.8,467l-71,87.2c-4.2,5.2-14.2,2.3-22.4-6.4l-21-22.5c-8.1-8.7-11.3-20-7.1-25.2l71-87.2
	c4.2-5.2,14.2-2.3,22.4,6.4l21,22.5C418.9,450.5,422,461.8,417.8,467z"/>
<path class="st15" d="M405.8,477.5l-58.9,72.4c-3.5,4.3-11.8,1.9-18.6-5.3l-17.4-18.7c-6.7-7.2-9.4-16.6-5.9-20.9l58.9-72.4
	c3.5-4.3,11.8-1.9,18.6,5.3l17.4,18.7C406.7,463.8,409.3,473.2,405.8,477.5z"/>
<path class="st7" d="M402.5,677.8l75.8,68.9L399.1,786c0,0-2.8,23.2,27.9,29.3s36.4,0.5,36.4,0.5l-33.9-11l12.7-17.6l41.9-32.8
	l12,10l2-9.7l-7.1-6.9l-65.1-66.3L402.5,677.8z"/>
<path class="st8" d="M333.8,605.9c-3.7,14.2,73.8,117.8,73.8,117.8l46.7-50.9l-17.7-5.7l-60.7-75.3
	C375.8,591.8,344.2,566.1,333.8,605.9z"/>
<path class="st16" d="M518.3,558.6c-1.7,74.7-36.9,128.1-103.5,114.9s-82.2-53.3-70.9-91c20.4-68,94.9-117.6,126.5-185.4
	C499.5,334.7,520,483.9,518.3,558.6z"/>
<ellipse transform="matrix(9.879834e-02 -0.9951 0.9951 9.879834e-02 98.2941 772.4094)" class="st16" cx="475.6" cy="331.9" rx="78.9" ry="90.4"/>
<ellipse transform="matrix(9.879869e-02 -0.9951 0.9951 9.879869e-02 136.4346 776.9224)" class="st4" cx="497.2" cy="313.1" rx="19.7" ry="22.6"/>
<ellipse transform="matrix(9.879869e-02 -0.9951 0.9951 9.879869e-02 149.7622 782.0632)" class="st11" cx="506.7" cy="308.3" rx="7.3" ry="8.4"/>
<path class="st17" d="M508.3,569.8c-1.2,49.5-24.4,84.9-68.6,76.2s-54.5-35.3-47-60.3c13.5-45,62.9-77.9,83.8-122.9
	C495.8,421.4,509.5,520.3,508.3,569.8z"/>
<path class="st9" d="M451.3,431.3c36,9-0.4,90.8,67.3,139.4c44.7,32.1,131.2,55.2,131.2,55.2s-213.6,78.5-246.3-81.5
	C392.5,491,411,421.2,451.3,431.3z"/>
<ellipse transform="matrix(0.9102 -0.4142 0.4142 0.9102 -138.9021 185.8645)" class="st14" cx="359.1" cy="413.2" rx="47.4" ry="57.8"/>
<ellipse transform="matrix(0.9102 -0.4142 0.4142 0.9102 -139.0563 185.7795)" class="st15" cx="358.8" cy="413.5" rx="34.4" ry="41.9"/>
<ellipse transform="matrix(0.9102 -0.4142 0.4142 0.9102 -139.039 186.9002)" class="st14" cx="361.4" cy="414" rx="23.5" ry="28.7"/>
<ellipse transform="matrix(0.9102 -0.4142 0.4142 0.9102 -139.1195 186.8564)" class="st15" cx="361.3" cy="414.2" rx="17.1" ry="20.8"/>
<path class="st15" d="M449.3,281c-33.1,1-41-4-41-4c-22.3-0.6-20.7-16.7-12.1-32.5l0,0c8.6-15.8,22.2-27.6,44.5-27l20.1,8l25.4-7.6
	c22.3,0.6,32.9,13.8,24.4,29.5l0,0c-3.2,6,100.8,8.8,93.8,13.3c-4.3,2.7-59,14.3-67,15.3C524.3,277,484.3,280,449.3,281z"/>
<path class="st18" d="M547.3,356l102-28c0,0-97-4.2-97-4C552.3,338,547.3,356,547.3,356z"/>
<ellipse transform="matrix(9.879869e-02 -0.9951 0.9951 9.879869e-02 202.8195 829.416)" class="st4" cx="559.3" cy="302.7" rx="10.4" ry="11.9"/>
<ellipse transform="matrix(9.879869e-02 -0.9951 0.9951 9.879869e-02 209.8236 832.1208)" class="st11" cx="564.3" cy="300.2" rx="3.8" ry="4.4"/>
<path class="st19" d="M633.9,453h18.8c3.6,0,6.5,2.9,6.5,6.5v40.9c0,3.6-2.9,6.5-6.5,6.5h-18.8c-3.6,0-6.5-2.9-6.5-6.5v-40.9
	C627.3,455.9,630.3,453,633.9,453z"/>
<path class="st20" d="M635.3,456.7h16.2c3.1,0,5.6,2.5,5.6,5.6v35.3c0,3.1-2.5,5.6-5.6,5.6h-16.2c-3.1,0-5.6-2.5-5.6-5.6v-35.3
	C629.7,459.3,632.2,456.7,635.3,456.7z"/>
<path class="st21" d="M649.4,501.3h-12.2c-3.4,0-6.2-2.8-6.2-6.2l2.4-19c0-3.4,3.7-5.1,8.8-1.9l6,8.8c3.4,0,7.4-3.4,7.4,0l0.1,12.1
	C655.6,498.5,652.8,501.3,649.4,501.3C649.4,501.3,649.4,501.3,649.4,501.3z"/>
<line class="st22" x1="633.5" y1="467.9" x2="648.4" y2="493.6"/>
<circle class="st23" cx="649.3" cy="490.2" r="2.1"/>
<path class="st24" d="M753.9,773.9c0,0,43.8,295.2,43.6,313.5l-390.4-58.8l-285.9-43.1L90.7,765.6c69.5-38.3,190.9,47.3,314.6,65.9
	S635.2,712.1,753.9,773.9z"/>
<path class="st25" d="M489.3,1058c0,0,203-110.6,218-123c23-19,73-55,91-93c9.6-20.2,723,176,749-30c6.9-54.6,49,119,32,195
	c-32.8,146.8-150,219-189,224S396.3,1099,489.3,1058z"/>
<path class="st26" d="M1249.4,904.1c166.9,7.9,287.1-4.8,298.1-92.2c6.9-54.6,49,119,32,195c-7.2,32.2-32,86.2-32.1,85.9
	C1496.3,1001,1249.3,904.1,1249.4,904.1z"/>
<polygon class="st2" points="811.3,862 930.3,880 894.3,919 763.2,919 "/>
<polygon class="st2" points="728.5,947.1 894.3,947 834.3,1036 931.3,1063 894.3,1093 693.3,1044 678.3,979.8 "/>
<polygon class="st2" points="645.7,998.7 660.3,1050 554.3,1050 "/>
<polygon class="st2" points="574.3,1072 660.3,1072 880.3,1137 660.3,1105 "/>
<path class="st2" d="M1549.3,862c0,0-5,16-39,29s-57,18-57,18v38l48,12v40c0,0,38-1,48,33S1575.3,916,1549.3,862z"/>
<path class="st2" d="M1524.6,1063l-0.3-13c0,0-22-30-29-30s-16,17-16,17l-13-13l13-37l-39-18h-24l10-50h-98l-3.1,18.3l-75.9,27.7
	l65,51l40-25l50.4,15.1l-83.4,43.9l145,68L1524.6,1063z"/>
<path class="st2" d="M1524.3,1093l-58,56l-149-77l-101,46l127,41l27-12l70,34c0,0,10,0,26-10S1524.3,1093,1524.3,1093z"/>
<polygon class="st2" points="1410.3,1199 1366.3,1181 1335.3,1199 1325.3,1213 1390.3,1223 "/>
<polygon class="st2" points="1321.3,1181 1176.3,1137 1146.3,1181 1309.3,1211 "/>
<polygon class="st2" points="1289.3,1037 1199.3,1093 1085.3,1072 1121.3,1024 1233.3,979.3 "/>
<path class="st2" d="M1232.3,919l30,14l-136,56l-54-35l49-45C1121.3,909,1200.3,928,1232.3,919z"/>
<polygon class="st2" points="1079.3,909 1042.3,949 969.4,929 996.3,891 "/>
<polygon class="st2" points="927.3,949 880.3,1024 985.3,1050 930.3,1105 1014.3,1118 1090.3,1016 1039.3,971 "/>
<polygon class="st2" points="1072.3,1093 1020.3,1155 1121.3,1174 1161.3,1118 "/>
<polygon class="st2" points="990.3,1137 913.3,1126 903.3,1147 983.3,1161 "/>
<polyline class="st27" points="740.9,928.1 736.3,932 742.3,932 "/>
<line class="st28" x1="754" y1="932.1" x2="911.5" y2="932.9"/>
<polyline class="st27" points="917.3,933 923.3,933 920.1,938 "/>
<line class="st29" x1="913.8" y1="947.7" x2="866.7" y2="1020.1"/>
<polyline class="st27" points="863.6,1025 860.3,1030 866.1,1031.7 "/>
<line class="st30" x1="878" y1="1035.2" x2="943.3" y2="1054.5"/>
<polyline class="st27" points="949.2,1056.3 955,1058 950.4,1061.9 "/>
<line class="st31" x1="940.5" y1="1070.3" x2="905.8" y2="1099.9"/>
<polyline class="st27" points="900.9,1104.1 896.3,1108 902.2,1109.2 "/>
<line class="st32" x1="914.5" y1="1111.7" x2="1006.3" y2="1130.5"/>
<polyline class="st27" points="1012.5,1131.8 1018.3,1133 1022.1,1128.3 "/>
<polyline class="st33" points="1029.7,1119 1113.3,1016 1272.4,942.1 "/>
<polyline class="st27" points="1277.9,939.5 1283.3,937 1278.3,933.7 "/>
<polyline class="st34" points="1268.1,927 1245.3,912 1165.3,909 817.3,852.9 "/>
<polyline class="st27" points="811.3,852 805.3,851 801.8,855.9 "/>
<polyline class="st35" points="793.9,866.9 763.3,909 746.1,923.7 "/>
<ellipse class="st36" cx="1302.8" cy="933.5" rx="25.5" ry="13.5"/>
<path class="st23" d="M1310.6,884.5c-1.2,0.7-28.2,14.9-34.1,8.2c-28.5-32.4-77.8-159.3-87-248.8c-5.1-49.6-6.6-111.5,47.3-135
	c11.2-4.9,62-12.9,77.1-12.9c109,0,130.2,87.2,124.4,147.9C1427.2,758.9,1310.6,884.5,1310.6,884.5z M1313.9,534.7
	c-48,0-87,39.2-87,87.5s38.9,87.5,87,87.5s87-39.2,87-87.5S1361.9,534.7,1313.9,534.7z"/>
<path class="st37" d="M1305.1,834c-1.2,0.7-27.2,7.9-33,1.2c-28.5-32.4-73.4-101.8-82.6-191.3c-5.1-49.6-4.4-103.3,49.5-126.8
	c11.2-4.9,55.5-4.2,70.4-2.3c57.2,7,79.6,74.3,73.8,135C1372.2,764.8,1305.1,834,1305.1,834z M1313.9,534.7c-48,0-87,39.2-87,87.5
	s38.9,87.5,87,87.5s87-39.2,87-87.5S1361.9,534.7,1313.9,534.7z"/>
<path class="st38" d="M1276.4,892.7c-6.9,4.2-110.1-132.6-121.1-240.6c-5.8-57.2,10.8-147.9,124.4-147.9
	c109,0,130.2,87.2,124.4,147.9C1393.1,767.1,1276.4,892.7,1276.4,892.7z M1279.7,543c-48,0-87,39.2-87,87.5s38.9,87.4,87,87.4
	s87-39.2,87-87.4S1327.8,543,1279.7,543z"/>
<path class="st39" d="M1280.4,511.3c-51.3,0-81.6,19.4-98.7,45.5c18.1-19.8,46.3-33.4,89.4-33.4c102.8,0,122.8,81.4,117.4,138.1
	c-6.5,67.2-52,138.2-85.2,182c33.2-41.9,87.4-120.3,94.6-194.1C1403.3,592.7,1383.3,511.3,1280.4,511.3z"/>
<path class="st39" d="M1192.8,593.4c-11,20-13.6,33.7-12.1,55.2c4.4,63.4,49.5,86.9,89.2,86.9c33.1,0,54-10.3,70.4-33.1
	c-17,16-65,36.6-113.4,7.3S1183.7,606,1192.8,593.4z"/>
</svg>
