<?xml version="1.0" encoding="utf-8"?>
<!-- Generator: Adobe Illustrator 23.1.1, SVG Export Plug-In . SVG Version: 6.00 Build 0)  -->
<svg version="1.1" id="Layer_1" xmlns="http://www.w3.org/2000/svg" xmlns:xlink="http://www.w3.org/1999/xlink" x="0px" y="0px"
	 viewBox="0 0 681 753" style="enable-background:new 0 0 681 753;" xml:space="preserve">
<style type="text/css">
	.st0{fill:#B7E2F7;}
	.st1{fill:#C5F580;}
	.st2{opacity:0.8;}
	.st3{opacity:0.3;clip-path:url(#SVGID_2_);}
	.st4{opacity:0.5;}
	.st5{stroke:#FFFFFF;stroke-miterlimit:10;}
	.st6{clip-path:url(#SVGID_4_);}
	.st7{opacity:0.1;clip-path:url(#SVGID_6_);}
	.st8{fill:#FFA02F;}
	.st9{fill:#B98600;}
	.st10{fill:#735100;}
	.st11{fill:#4D4D4D;}
	.st12{fill:#FFFFFF;}
	.st13{fill:#666666;}
	.st14{fill:#603813;}
	.st15{fill:#5F3400;}
	.st16{fill:#5F4800;}
	.st17{fill:#FF9C17;}
	.st18{fill:#86D000;}
	.st19{fill:#FFD52E;}
</style>
<g>
	<ellipse class="st0" cx="326.5" cy="473" rx="286.5" ry="271"/>
	<path class="st1" d="M597,476.2C597,618.6,475,734,324.5,734S52,618.6,52,476.2s122.5,45.7,273,45.7S597,333.9,597,476.2z"/>
</g>
<g class="st2">
	
		<image style="overflow:visible;enable-background:new    ;" width="554" height="221" xlink:href="C2DCC742C0C73FB0.png"  transform="matrix(1 0 0 1 25 217)">
	</image>
</g>
<g>
	<g>
		<defs>
			<ellipse id="SVGID_1_" cx="326.5" cy="474" rx="286.5" ry="271"/>
		</defs>
		<clipPath id="SVGID_2_">
			<use xlink:href="#SVGID_1_"  style="overflow:visible;"/>
		</clipPath>
		<g class="st3">
			<g>
				<path d="M377,699.6l27.2,4.5l13.5,2.6l2.7,1.2l-11.5,0.2l-29.2,12.2c0,0,50.8,8.5,72,2.6s4.6,1.5,4.6,1.5s-60,5.1-79.6,1.5
					c-19.5-3.6-7.4-6.3-7.4-6.3l27.4-13.3l-31.1-3.5L377,699.6z"/>
				<polygon points="303.6,685.7 372.7,696.2 401,696.3 355.3,710.4 273.9,698.5 				"/>
				<g>
					<path d="M233.3,658.1c-34.1,12.7,85.5,16.9,137.4,14.8s98.1-8.3,87-17.2c0,0-42.3,4.2-94.2,6.3S262.8,647.2,233.3,658.1z"/>
				</g>
			</g>
			<g>
				<g>
					<g>
						<path d="M445.4,726.2c-16.7,13.9,32.1,27.8,109,30.9s152.9-5.6,169.6-19.5c16.7-13.9-32.1-27.8-109-30.9
							S462.1,712.2,445.4,726.2z M707.9,736.9c-14.8,12.3-81.9,20-150,17.3c-68-2.8-111.2-15-96.4-27.3s81.9-20,150-17.3
							C679.5,712.3,722.7,724.6,707.9,736.9z"/>
					</g>
					<g>
						<path d="M565.6,731.1c-2.3,1.9,4.4,3.8,14.9,4.2s20.9-0.8,23.2-2.7c2.3-1.9-4.4-3.8-14.9-4.2
							C578.3,728,567.9,729.2,565.6,731.1z M594.2,732.2c-1.1,0.9-6,1.5-10.9,1.3s-8.1-1.1-7-2c1.1-0.9,6-1.5,10.9-1.3
							C592.1,730.5,595.2,731.3,594.2,732.2z M589.9,732.1c-0.5,0.4-3,0.7-5.4,0.6c-2.5-0.1-4-0.5-3.5-1s3-0.7,5.4-0.6
							C588.8,731.2,590.4,731.7,589.9,732.1z"/>
					</g>
					<g>
						<polygon points="537.9,754 573.8,733.1 572,733 536.1,753.9 						"/>
						<polygon points="561.3,755.3 573.4,733.5 571.5,733.5 559.5,755.3 						"/>
					</g>
					<g>
						<polygon points="639.4,753.8 585.6,734.1 583.9,734.2 637.7,753.9 						"/>
						<polygon points="661.2,751.8 586.8,734.4 585.4,734.6 659.8,752 						"/>
					</g>
					<g>
						<polygon points="691.1,747.7 595.4,734.1 594.3,734.4 690,747.9 						"/>
						<polygon points="705.9,744.1 597.4,734.3 596.5,734.6 705.1,744.4 						"/>
					</g>
					<g>
						<polygon points="715.9,727.5 596.9,731.2 597.2,731.5 716.2,727.8 						"/>
						<polygon points="711.4,723.1 599.1,731 599.8,731.3 712.1,723.4 						"/>
					</g>
					<g>
						<polygon points="716.8,736.9 598.1,732.6 597.8,733 716.5,737.2 						"/>
						<polygon points="721.3,732.6 600.4,732.7 600.4,733 721.3,732.9 						"/>
					</g>
					<g>
						<polygon points="690.4,717.1 595.4,730.5 596.5,730.8 691.5,717.3 						"/>
						<polygon points="675.1,713.6 597,730.2 598.5,730.4 676.5,713.8 						"/>
					</g>
					<g>
						<polygon points="647.5,710.8 592.6,730.3 594.2,730.5 649.2,711 						"/>
						<polygon points="625.6,708.8 593.4,729.9 595.2,730 627.4,708.9 						"/>
					</g>
					<g>
						<polygon points="555.6,708.8 580,730.3 581.8,730.2 557.5,708.7 						"/>
						<polygon points="531.7,709.7 579.3,729.9 581,729.8 533.4,709.5 						"/>
					</g>
					<g>
						<polygon points="611,708.8 581.2,730 583.1,730.1 612.8,708.9 						"/>
						<polygon points="587.2,707.7 581.6,729.6 583.4,729.6 589.1,707.7 						"/>
					</g>
					<g>
						<polygon points="503.9,712.5 573.4,730.5 574.9,730.3 505.4,712.3 						"/>
						<polygon points="483.9,715 571.9,730.2 573.1,730 485.2,714.8 						"/>
					</g>
					<g>
						<polygon points="468.6,720.5 572.8,731.8 573.7,731.5 469.5,720.2 						"/>
						<polygon points="456.3,724.3 570.7,731.6 571.3,731.3 456.9,724 						"/>
					</g>
					<g>
						<polygon points="448.9,735.2 568.5,732.2 568.3,731.9 448.6,734.9 						"/>
						<polygon points="452.6,739.6 566.3,732.3 565.7,732 451.9,739.3 						"/>
					</g>
					<g>
						<polygon points="452,726.9 569.8,731.9 570.3,731.6 452.4,726.5 						"/>
						<polygon points="446.7,731.2 567.6,731.8 567.6,731.5 446.8,730.9 						"/>
					</g>
					<g>
						<polygon points="457.8,742 566.6,732.6 565.8,732.3 457,741.7 						"/>
						<polygon points="468.7,746 564.6,732.8 563.5,732.5 467.5,745.7 						"/>
					</g>
					<g>
						<polygon points="489.5,747.3 576,732.1 574.7,731.8 488.2,747 						"/>
						<polygon points="506.7,750.4 574.5,732.4 573,732.2 505.2,750.2 						"/>
					</g>
					<g>
						<polygon points="597.2,756.2 577,734.5 575.1,734.6 595.4,756.2 						"/>
						<polygon points="621.4,755.4 577.6,734.9 575.9,735.1 619.6,755.6 						"/>
					</g>
					<g class="st4">
						<path d="M455.2,726.8C439.4,739.9,485,753,557,755.9c72,2.9,143.2-5.3,159-18.5c15.8-13.1-29.8-26.2-101.8-29.1
							C542.2,705.4,471,713.7,455.2,726.8z M710.7,737c-15.4,12.8-85,20.9-155.4,18s-115-15.6-99.6-28.4s85-20.9,155.4-18
							S726.1,724.1,710.7,737z"/>
					</g>
				</g>
				<g>
					<g>
						<path d="M93.7,722.1C19.1,725-27.3,738.7-10,752.7s91.8,22.9,166.4,20s121-16.6,103.7-30.6
							C242.8,728.1,168.3,719.1,93.7,722.1z M152.7,769.7C86.8,772.3,20.9,764.4,5.6,752c-15.3-12.3,25.8-24.5,91.7-27
							c66-2.6,131.8,5.3,147.1,17.6C259.7,755,218.7,767.1,152.7,769.7z"/>
					</g>
					<g>
						<path d="M120.7,743.9c-10.2,0.4-16.6,2.3-14.2,4.2s12.6,3.1,22.8,2.7c10.2-0.4,16.6-2.3,14.2-4.2
							C141.1,744.7,130.9,743.5,120.7,743.9z M127.1,749c-4.8,0.2-9.6-0.4-10.7-1.3c-1.1-0.9,1.9-1.8,6.7-2
							c4.8-0.2,9.6,0.4,10.7,1.3C134.9,748,131.9,748.9,127.1,749z M126,748.3c-2.4,0.1-4.8-0.2-5.3-0.6c-0.6-0.5,0.9-0.9,3.3-1
							c2.4-0.1,4.8,0.2,5.3,0.6C129.8,747.8,128.4,748.2,126,748.3z"/>
					</g>
					<g>
						<polygon points="-2,748.7 114.3,746.1 114.1,745.7 -2.3,748.3 						"/>
						<polygon points="1.4,753.1 112.2,746.2 111.6,745.8 0.8,752.8 						"/>
					</g>
					<g>
						<polygon points="41.9,765.3 114.7,748.4 113.3,748.2 40.5,765.1 						"/>
						<polygon points="60.7,768.1 113.5,748.7 111.9,748.6 59.1,767.9 						"/>
					</g>
					<g>
						<polygon points="93.5,771.3 118.6,750 116.8,750 91.7,771.2 						"/>
						<polygon points="116.8,772.3 118.3,750.4 116.5,750.4 115,772.3 						"/>
					</g>
					<g>
						<polygon points="201.8,767.1 133.6,749.1 132.1,749.3 200.4,767.3 						"/>
						<polygon points="221.1,764.6 135,749.4 133.8,749.6 219.9,764.9 						"/>
					</g>
					<g>
						<polygon points="156.3,771.2 126.9,749.9 125.1,749.9 154.6,771.2 						"/>
						<polygon points="179.3,770.1 127.7,750.3 126.1,750.4 177.7,770.3 						"/>
					</g>
					<g>
						<polygon points="241.4,758.7 136.2,748.5 135.4,748.8 240.6,759 						"/>
						<polygon points="251.8,754.8 138.3,748.7 137.8,749 251.4,755.1 						"/>
					</g>
					<g>
						<polygon points="253.4,749.1 135.9,748 135.9,748.3 253.3,749.4 						"/>
						<polygon points="253.9,744.7 138.1,748 138.4,748.3 254.2,745 						"/>
					</g>
					<g>
						<polygon points="224.5,733.1 130.6,745.9 131.6,746.2 225.6,733.4 						"/>
						<polygon points="210,729.5 132.2,745.7 133.5,745.9 211.4,729.8 						"/>
					</g>
					<g>
						<polygon points="247.7,742.2 132.4,746 132.8,746.3 248.1,742.6 						"/>
						<polygon points="243,737.9 134.5,745.9 135.2,746.2 243.7,738.2 						"/>
					</g>
					<g>
						<polygon points="184.7,726.1 126.7,744.9 128.3,745.1 186.3,726.3 						"/>
						<polygon points="163.9,723.9 127.6,744.5 129.3,744.7 165.6,724 						"/>
					</g>
					<g>
						<polygon points="130.9,723.6 120.3,745.3 122.1,745.4 132.6,723.6 						"/>
						<polygon points="107.1,723.1 120.3,744.9 122.1,744.9 108.9,723.1 						"/>
					</g>
					<g>
						<polygon points="51.4,726.3 116.3,744.8 117.8,744.7 52.9,726.2 						"/>
						<polygon points="31.6,728.7 114.9,744.5 116.2,744.3 32.9,728.5 						"/>
					</g>
					<g>
						<polygon points="93.1,723.4 118.5,744.9 120.3,744.8 94.8,723.4 						"/>
						<polygon points="69.8,724.3 117.8,744.5 119.5,744.4 71.5,724.2 						"/>
					</g>
					<g>
						<polygon points="22.3,730.6 113.9,744.6 115.1,744.4 23.5,730.3 						"/>
						<polygon points="7.5,734 112,744.4 112.9,744.1 8.4,733.7 						"/>
					</g>
					<g>
						<polygon points="10.1,738 120.3,746 120.9,745.7 10.7,737.6 						"/>
						<polygon points="2,742.1 118.1,745.9 118.4,745.5 2.2,741.8 						"/>
					</g>
					<g>
						<polygon points="12.4,759.3 108.7,747.2 107.7,746.9 11.4,759.1 						"/>
						<polygon points="26.2,763 107,747.4 105.7,747.2 24.9,762.8 						"/>
					</g>
					<g class="st4">
						<path d="M94.8,723.9c-70.4,2.8-114.3,15.6-98.1,28.7s86.4,21.4,156.7,18.6c70.4-2.8,114.3-15.6,98.1-28.7
							C235.3,729.5,165.1,721.2,94.8,723.9z M153.6,770.2C85,772.9,16.5,764.7,0.7,751.9c-15.8-12.8,27-25.3,95.6-28
							s137.1,5.5,152.9,18.2S222.2,767.5,153.6,770.2z"/>
					</g>
				</g>
				<g>
					<polygon points="453.1,706.4 179.3,716.9 176.2,714.5 450.1,704.1 					"/>
					<polygon points="363.3,737.3 181.9,715.5 178.9,718.1 360.3,739.9 					"/>
					<polygon points="128.5,747 354.9,736.9 357,738.8 130.6,748.8 					"/>
					<polygon points="178.5,715.1 185.4,716.3 135.1,747.7 128.2,746.5 					"/>
					<polygon points="191.6,717.4 179.2,718.5 162.9,710.4 175.2,709.3 					"/>
					<polygon points="478.8,715.7 467.6,716.3 441,699 452.1,698.4 					"/>
					<ellipse transform="matrix(1.125332e-03 -1 1 1.125332e-03 -386.9577 1087.4342)" cx="350.9" cy="737.4" rx="5" ry="28"/>
					<ellipse transform="matrix(9.923325e-03 -1 1 9.923325e-03 -617.4028 870.3476)" cx="130.8" cy="747" rx="2.8" ry="14"/>
					<path d="M208.4,704.6c3.9,2.5-12,7.4-32.3,8.5s-60.1-1.7-64-4.2s29.9-0.9,50.2-2C182.6,705.8,204.5,702.1,208.4,704.6z"/>
					<polygon points="439.9,727.3 385.7,730 383.3,728 437.5,725.2 					"/>
					<polygon points="413.2,728.9 357.9,739.6 354,737.5 409.4,726.8 					"/>
					<path d="M578.9,731.6l-5.6,1.5c-33.4-2.8-84.4-7.4-98.4-16.5l11.1-0.6C498.3,724.2,548.4,728.1,578.9,731.6z"/>
					<polygon points="507.3,721.1 489.6,722.8 457,712.5 474.7,710.9 					"/>
					<polygon points="357.7,737.7 351.3,736.2 451.4,705.2 457.8,706.7 					"/>
					<polygon points="478.5,696.9 447.6,700.7 435.8,698.3 466.7,694.5 					"/>
					<polygon points="476.1,696.9 506.5,690.2 497.7,689.2 467.3,696 					"/>
					<ellipse transform="matrix(1 -9.785984e-03 9.785984e-03 1 -6.7122 4.9291)" cx="500.3" cy="688.3" rx="17.3" ry="2.7"/>
					<path d="M294.6,733.3C215,736.4,94.7,744,99.9,748.2s97.4,2.4,177-0.7s116.2-6.5,111-10.7S374.1,730.2,294.6,733.3z
						 M277.1,746.5c-72.3,2.8-156.1,4.5-160.6,0.9c-4.5-3.6,105.1-10.3,177.4-13.2c72.3-2.8,80-0.7,84.4,2.9
						C382.8,740.7,349.4,743.7,277.1,746.5z"/>
					<polygon points="370.4,737.3 308.6,749.5 303.8,747.4 365.6,735.2 					"/>
					<polygon points="333,748.4 285.2,750.7 276.7,748.4 324.5,746.1 					"/>
				</g>
			</g>
			<g>
				<path d="M189.8,671.1l-70.2,25c-4.2,1.5-18.5,1.9-32,0.8l-34.9-2.7c-13.5-1-21.1-3.1-16.9-4.6l70.2-25.1
					c4.2-1.5,18.5-1.9,32-0.8l34.9,2.7C186.4,667.6,194,669.6,189.8,671.1z"/>
				<path d="M176.7,674.4l-58.2,20.8c-3.5,1.2-15.3,1.5-26.6,0.7L63,693.7c-11.2-0.9-17.5-2.6-14-3.8l58.2-20.8
					c3.5-1.2,15.3-1.5,26.6-0.7l28.9,2.2C173.9,671.5,180.2,673.2,176.7,674.4z"/>
				<path d="M230.9,716.5l124.4,8.8L262.5,743c0,0,4,5.9,47.1,4.2s48.9-3.6,48.9-3.6l-49,0.8l11.2-5.5l45.1-12.2l19.5,1.2l-0.6-2.5
					l-11.8-0.9l-109.2-9.3L230.9,716.5z"/>
				<path d="M117.2,708.2c-0.9,3.3,133.8,17.4,133.8,17.4l48-15.1l-25.5,0.5l-103.8-9.8C169.8,701.2,119.7,698.9,117.2,708.2z"/>
				<polygon class="st5" points="311.7,638.4 401.9,620.1 288.8,632 				"/>
				<g>
					<path d="M352,680.5c19.5,15.7-12.2,30.3-105.8,34s-126.3-3.2-122.1-12.1c7.6-16.1,93.4-33.7,116.1-50.9
						C261.1,635.6,332.5,664.7,352,680.5z"/>
				</g>
				<g>
					<ellipse transform="matrix(1 -4.375202e-03 4.375202e-03 1 -2.793 0.9353)" cx="212.4" cy="638.8" rx="114.3" ry="19.3"/>
				</g>
				<g>
					<ellipse transform="matrix(1 -4.375205e-03 4.375205e-03 1 -2.7533 1.0677)" cx="242.7" cy="629.8" rx="27.9" ry="4.7"/>
				</g>
				<ellipse transform="matrix(1 -4.375205e-03 4.375205e-03 1 -2.7444 1.1014)" cx="250.4" cy="627.8" rx="9.9" ry="1.7"/>
				<g>
					<path d="M341.8,683.8c12.9,10.4-8.1,20.1-70.2,22.5s-83.8-2.1-81-8c5-10.7,61.9-22.3,77-33.7
						C281.6,654,328.9,673.3,341.8,683.8z"/>
				</g>
				<g>
					<path d="M218.8,656.4c50.1-0.1,3.4,20.2,98.7,27.2c63,4.6,183.2,4.8,183.2,4.8s-291,29.7-343-4
						C140.4,673,162.8,656.4,218.8,656.4z"/>
				</g>
				<ellipse transform="matrix(1 -4.375207e-03 4.375207e-03 1 -2.911 0.422)" cx="95" cy="665.5" rx="70.8" ry="12"/>
				<ellipse transform="matrix(1 -4.375202e-03 4.375202e-03 1 -2.9114 0.4207)" cx="94.7" cy="665.6" rx="51.3" ry="8.7"/>
				<ellipse transform="matrix(1 -4.375200e-03 4.375200e-03 1 -2.9108 0.4367)" cx="98.4" cy="665.5" rx="35.2" ry="5.9"/>
				<ellipse transform="matrix(1 -4.375211e-03 4.375211e-03 1 -2.911 0.4361)" cx="98.2" cy="665.5" rx="25.5" ry="4.3"/>
				<path d="M172.1,627.7l-38.9,5.2c-25.9,3.5-56.7,4.2-68.9,1.6l0,0c-12.2-2.6-13.3-5.7,12.6-9.2l33.7-2.5l18-4.6
					c25.9-3.5,56.1-4.1,68.3-1.5l0,0c4.6,1,125.6-15.2,123.9-13.8c-1,0.9-122.8,19.4-125.8,20.3
					C189.9,624.8,182.1,626.3,172.1,627.7z"/>
			</g>
		</g>
	</g>
</g>
<g>
	<g>
		<defs>
			<path id="SVGID_3_" d="M613,357c82.7,218.3,104,299,104,299c86.9,68.5,104.3,116.6,10,89c0,0-357.9-1-398.5-1
				C170.3,744,42,622.7,42,473S157.6,34.9,464-36C546.8-55.2,544.1,175.1,613,357z"/>
		</defs>
		<clipPath id="SVGID_4_">
			<use xlink:href="#SVGID_3_"  style="overflow:visible;"/>
		</clipPath>
		<g class="st6">
			<g>
				<g>
					<defs>
						<ellipse id="SVGID_5_" cx="326.3" cy="474.9" rx="286.5" ry="271"/>
					</defs>
					<clipPath id="SVGID_6_">
						<use xlink:href="#SVGID_5_"  style="overflow:visible;"/>
					</clipPath>
					<g class="st7">
						<g>
							<path d="M376.8,700.5L404,705l13.5,2.6l2.7,1.2l-11.5,0.2l-29.2,12.2c0,0,50.8,8.5,72,2.6c21.2-5.9,4.6,1.5,4.6,1.5
								s-60,5.1-79.6,1.5c-19.5-3.6-7.4-6.3-7.4-6.3l27.4-13.3l-31.1-3.5L376.8,700.5z"/>
							<polygon points="303.4,686.5 372.5,697.1 400.8,697.2 355.1,711.3 273.7,699.4 							"/>
							<g>
								<path d="M233.1,659c-34.1,12.7,85.5,16.9,137.4,14.8s98.1-8.3,87-17.2c0,0-42.3,4.2-94.2,6.3S262.6,648.1,233.1,659z"/>
							</g>
						</g>
						<g>
							<g>
								<g>
									<path d="M445.2,727c-16.7,13.9,32.1,27.8,109,30.9s152.9-5.6,169.6-19.5s-32.1-27.8-109-30.9S461.9,713.1,445.2,727z
										 M707.7,737.8c-14.8,12.3-81.9,20-150,17.3c-68-2.8-111.2-15-96.4-27.3s81.9-20,150-17.3
										C679.3,713.2,722.5,725.5,707.7,737.8z"/>
								</g>
								<g>
									<path d="M565.4,732c-2.3,1.9,4.4,3.8,14.9,4.2s20.9-0.8,23.2-2.7s-4.4-3.8-14.9-4.2S567.7,730,565.4,732z M593.9,733.1
										c-1.1,0.9-6,1.5-10.9,1.3c-4.9-0.2-8.1-1.1-7-2c1.1-0.9,6-1.5,10.9-1.3C591.9,731.3,595,732.2,593.9,733.1z M589.7,733
										c-0.5,0.4-3,0.7-5.4,0.6c-2.5-0.1-4-0.5-3.5-1c0.5-0.4,3-0.7,5.4-0.6C588.6,732.1,590.2,732.5,589.7,733z"/>
								</g>
								<g>
									<polygon points="537.7,754.9 573.6,734 571.8,733.9 535.9,754.8 									"/>
									<polygon points="561.1,756.2 573.2,734.4 571.3,734.4 559.2,756.2 									"/>
								</g>
								<g>
									<polygon points="639.2,754.7 585.4,735 583.7,735.1 637.5,754.8 									"/>
									<polygon points="661,752.7 586.6,735.3 585.2,735.5 659.5,752.9 									"/>
								</g>
								<g>
									<polygon points="690.9,748.5 595.2,735 594.1,735.3 689.8,748.8 									"/>
									<polygon points="705.7,745 597.2,735.2 596.3,735.5 704.9,745.3 									"/>
								</g>
								<g>
									<polygon points="715.7,728.3 596.7,732 597,732.4 716,728.7 									"/>
									<polygon points="711.2,724 598.9,731.9 599.6,732.2 711.9,724.3 									"/>
								</g>
								<g>
									<polygon points="716.6,737.8 597.9,733.5 597.5,733.9 716.3,738.1 									"/>
									<polygon points="721,733.5 600.2,733.6 600.2,733.9 721.1,733.8 									"/>
								</g>
								<g>
									<polygon points="690.2,718 595.2,731.4 596.3,731.6 691.3,718.2 									"/>
									<polygon points="674.9,714.5 596.8,731.1 598.2,731.3 676.3,714.7 									"/>
								</g>
								<g>
									<polygon points="647.3,711.7 592.4,731.2 594,731.3 649,711.9 									"/>
									<polygon points="625.4,709.7 593.2,730.8 595,730.9 627.2,709.8 									"/>
								</g>
								<g>
									<polygon points="555.4,709.7 579.8,731.2 581.6,731.1 557.2,709.6 									"/>
									<polygon points="531.5,710.6 579.1,730.8 580.8,730.7 533.2,710.4 									"/>
								</g>
								<g>
									<polygon points="610.8,709.7 581,730.9 582.8,731 612.6,709.8 									"/>
									<polygon points="587,708.6 581.4,730.5 583.2,730.5 588.9,708.6 									"/>
								</g>
								<g>
									<polygon points="503.7,713.4 573.2,731.4 574.7,731.2 505.2,713.2 									"/>
									<polygon points="483.7,715.9 571.7,731.1 572.9,730.8 485,715.7 									"/>
								</g>
								<g>
									<polygon points="468.4,721.4 572.5,732.7 573.5,732.4 469.3,721.1 									"/>
									<polygon points="456.1,725.2 570.5,732.5 571.1,732.2 456.7,724.9 									"/>
								</g>
								<g>
									<polygon points="448.7,736.1 568.3,733.1 568,732.8 448.4,735.8 									"/>
									<polygon points="452.4,740.5 566.1,733.2 565.5,732.9 451.7,740.2 									"/>
								</g>
								<g>
									<polygon points="451.8,727.8 569.7,732.8 570.1,732.5 452.2,727.4 									"/>
									<polygon points="446.5,732.1 567.4,732.7 567.4,732.4 446.6,731.8 									"/>
								</g>
								<g>
									<polygon points="457.6,742.9 566.4,733.5 565.6,733.2 456.8,742.6 									"/>
									<polygon points="468.5,746.9 564.4,733.7 563.3,733.4 467.3,746.6 									"/>
								</g>
								<g>
									<polygon points="489.3,748.2 575.8,733 574.5,732.7 488,747.9 									"/>
									<polygon points="506.5,751.3 574.3,733.3 572.8,733.1 505,751.1 									"/>
								</g>
								<g>
									<polygon points="597,757.1 576.8,735.4 574.9,735.5 595.2,757.1 									"/>
									<polygon points="621.2,756.3 577.4,735.8 575.7,736 619.4,756.5 									"/>
								</g>
								<g class="st4">
									<path d="M455,727.7c-15.8,13.1,29.8,26.2,101.8,29.1c72,2.9,143.2-5.3,159-18.5c15.8-13.1-29.8-26.2-101.8-29.1
										C541.9,706.3,470.8,714.5,455,727.7z M710.5,737.8c-15.4,12.8-85,20.9-155.4,18s-115-15.6-99.6-28.4s85-20.9,155.4-18
										S725.9,725,710.5,737.8z"/>
								</g>
							</g>
							<g>
								<g>
									<path d="M93.5,723c-74.6,2.9-121,16.6-103.7,30.6s91.8,22.9,166.4,20s121-16.6,103.7-30.6C242.6,729,168.1,720,93.5,723z
										 M152.5,770.6c-65.9,2.6-131.8-5.3-147.1-17.6c-15.3-12.3,25.8-24.5,91.7-27c65.9-2.6,131.8,5.3,147.1,17.6
										S218.5,768,152.5,770.6z"/>
								</g>
								<g>
									<path d="M120.5,744.8c-10.2,0.4-16.6,2.3-14.2,4.2s12.6,3.1,22.8,2.7s16.6-2.3,14.2-4.2S130.8,744.4,120.5,744.8z
										 M126.9,749.9c-4.8,0.2-9.6-0.4-10.7-1.3s1.9-1.8,6.7-2c4.8-0.2,9.6,0.4,10.7,1.3C134.7,748.9,131.7,749.8,126.9,749.9z
										 M125.8,749.2c-2.4,0.1-4.8-0.2-5.3-0.6c-0.6-0.5,0.9-0.9,3.3-1c2.4-0.1,4.8,0.2,5.3,0.6
										C129.6,748.7,128.1,749.1,125.8,749.2z"/>
								</g>
								<g>
									<polygon points="-2.3,749.6 114.1,747 113.9,746.6 -2.5,749.2 									"/>
									<polygon points="1.2,754 112,747 111.3,746.7 0.6,753.7 									"/>
								</g>
								<g>
									<polygon points="41.7,766.2 114.5,749.3 113.1,749.1 40.3,766 									"/>
									<polygon points="60.5,769 113.3,749.6 111.7,749.5 58.9,768.8 									"/>
								</g>
								<g>
									<polygon points="93.2,772.2 118.3,750.9 116.6,750.8 91.5,772.1 									"/>
									<polygon points="116.6,773.2 118.1,751.3 116.3,751.3 114.8,773.2 									"/>
								</g>
								<g>
									<polygon points="201.6,768 133.4,750 131.9,750.2 200.1,768.2 									"/>
									<polygon points="220.9,765.5 134.8,750.3 133.6,750.5 219.7,765.8 									"/>
								</g>
								<g>
									<polygon points="156.1,772.1 126.7,750.8 124.9,750.8 154.4,772.1 									"/>
									<polygon points="179.1,771 127.5,751.2 125.8,751.3 177.5,771.2 									"/>
								</g>
								<g>
									<polygon points="241.2,759.6 136,749.4 135.1,749.7 240.4,759.9 									"/>
									<polygon points="251.6,755.6 138.1,749.6 137.6,749.9 251.2,756 									"/>
								</g>
								<g>
									<polygon points="253.2,750 135.7,748.9 135.6,749.2 253.1,750.3 									"/>
									<polygon points="253.7,745.5 137.9,748.9 138.2,749.2 254,745.9 									"/>
								</g>
								<g>
									<polygon points="224.3,734 130.4,746.8 131.4,747.1 225.4,734.3 									"/>
									<polygon points="209.8,730.4 132,746.5 133.3,746.8 211.2,730.7 									"/>
								</g>
								<g>
									<polygon points="247.5,743.1 132.2,746.9 132.6,747.2 247.9,743.5 									"/>
									<polygon points="242.8,738.8 134.3,746.8 135,747.1 243.5,739.1 									"/>
								</g>
								<g>
									<polygon points="184.5,727 126.5,745.8 128.1,746 186.1,727.2 									"/>
									<polygon points="163.7,724.8 127.4,745.4 129.1,745.5 165.4,724.9 									"/>
								</g>
								<g>
									<polygon points="130.6,724.5 120.1,746.2 121.9,746.3 132.4,724.5 									"/>
									<polygon points="106.9,724 120.1,745.8 121.9,745.8 108.7,724 									"/>
								</g>
								<g>
									<polygon points="51.2,727.2 116.1,745.7 117.6,745.5 52.7,727 									"/>
									<polygon points="31.5,729.6 114.7,745.4 116,745.2 32.7,729.4 									"/>
								</g>
								<g>
									<polygon points="92.8,724.3 118.3,745.8 120.1,745.7 94.6,724.3 									"/>
									<polygon points="69.6,725.2 117.6,745.4 119.2,745.3 71.3,725.1 									"/>
								</g>
								<g>
									<polygon points="22.1,731.5 113.7,745.5 114.8,745.3 23.3,731.2 									"/>
									<polygon points="7.3,734.9 111.8,745.3 112.7,745 8.2,734.6 									"/>
								</g>
								<g>
									<polygon points="9.9,738.8 120.1,746.9 120.7,746.6 10.5,738.5 									"/>
									<polygon points="1.8,743 117.9,746.8 118.2,746.4 2,742.7 									"/>
								</g>
								<g>
									<polygon points="12.2,760.2 108.5,748.1 107.5,747.8 11.2,760 									"/>
									<polygon points="26,763.9 106.8,748.3 105.5,748.1 24.7,763.7 									"/>
								</g>
								<g class="st4">
									<path d="M94.6,724.8c-70.4,2.8-114.3,15.6-98.1,28.7s86.4,21.4,156.7,18.6c70.4-2.8,114.3-15.6,98.1-28.7
										S164.9,722,94.6,724.8z M153.4,771.1c-68.6,2.7-137.1-5.5-152.9-18.2s27-25.3,95.6-28S233.1,730.3,249,743
										C264.8,755.8,222,768.4,153.4,771.1z"/>
								</g>
							</g>
							<g>
								<polygon points="452.9,707.3 179.1,717.8 176,715.4 449.9,705 								"/>
								<polygon points="363.1,738.2 181.7,716.4 178.6,719 360.1,740.8 								"/>
								<polygon points="128.3,747.9 354.7,737.8 356.8,739.7 130.4,749.7 								"/>
								<polygon points="178.3,716 185.2,717.2 134.9,748.6 128,747.4 								"/>
								<polygon points="191.3,718.3 179,719.4 162.6,711.3 175,710.2 								"/>
								<polygon points="478.5,716.5 467.4,717.2 440.8,699.9 451.9,699.2 								"/>
								<ellipse transform="matrix(1.125332e-03 -1 1 1.125332e-03 -388.0495 1088.1111)" cx="350.6" cy="738.3" rx="5" ry="28"/>
								<ellipse transform="matrix(9.923325e-03 -1 1 9.923325e-03 -618.4927 871.0169)" cx="130.6" cy="747.8" rx="2.8" ry="14"/>
								<path d="M208.2,705.5c3.9,2.5-12,7.4-32.3,8.5s-60.1-1.7-64-4.2c-3.9-2.5,29.9-0.9,50.2-2
									C182.3,706.7,204.3,703,208.2,705.5z"/>
								<polygon points="439.7,728.2 385.5,730.9 383.1,728.8 437.3,726.1 								"/>
								<polygon points="413,729.8 357.7,740.5 353.8,738.4 409.2,727.7 								"/>
								<path d="M578.7,732.5l-5.6,1.5c-33.4-2.8-84.4-7.4-98.4-16.5l11.1-0.6C498.1,725,548.2,729,578.7,732.5z"/>
								<polygon points="507.1,722 489.4,723.7 456.8,713.4 474.5,711.8 								"/>
								<polygon points="357.5,738.6 351,737.1 451.2,706.1 457.6,707.6 								"/>
								<polygon points="478.3,697.8 447.5,701.6 435.6,699.2 466.5,695.4 								"/>
								<polygon points="475.9,697.8 506.3,691.1 497.5,690.1 467.1,696.9 								"/>
								<ellipse transform="matrix(1 -9.785984e-03 9.785984e-03 1 -6.7209 4.9271)" cx="500.1" cy="689.2" rx="17.3" ry="2.7"/>
								<path d="M294.4,734.2c-79.5,3.1-199.9,10.7-194.7,14.9s97.4,2.4,177-0.7s116.2-6.5,111-10.7S373.9,731,294.4,734.2z
									 M276.9,747.4c-72.3,2.8-156.1,4.5-160.6,0.9c-4.5-3.6,105.1-10.3,177.4-13.2c72.3-2.8,80-0.7,84.4,2.9
									C382.6,741.6,349.2,744.6,276.9,747.4z"/>
								<polygon points="370.1,738.2 308.4,750.4 303.6,748.3 365.4,736.1 								"/>
								<polygon points="332.8,749.3 285,751.6 276.5,749.3 324.3,747 								"/>
							</g>
						</g>
						<g>
							<path d="M189.6,672l-70.2,25c-4.2,1.5-18.5,1.9-32,0.8l-34.9-2.7c-13.5-1-21.1-3.1-16.9-4.6l70.2-25c4.2-1.5,18.5-1.9,32-0.8
								l34.9,2.7C186.2,668.5,193.8,670.5,189.6,672z"/>
							<path d="M176.5,675.3l-58.2,20.8c-3.5,1.2-15.3,1.5-26.6,0.7l-28.9-2.2c-11.2-0.9-17.5-2.6-14-3.8L107,670
								c3.5-1.2,15.3-1.5,26.6-0.7l28.9,2.2C173.7,672.4,180,674.1,176.5,675.3z"/>
							<path d="M230.7,717.4l124.4,8.8l-92.8,17.7c0,0,4,5.9,47.1,4.2s48.9-3.6,48.9-3.6l-49,0.8l11.2-5.5l45.1-12.2l19.5,1.2
								l-0.6-2.5l-11.8-0.9l-109.2-9.3L230.7,717.4z"/>
							<path d="M117,709.1c-0.9,3.3,133.8,17.4,133.8,17.4l48-15.1l-25.5,0.5l-103.8-9.8C169.5,702.1,119.5,699.8,117,709.1z"/>
							<polygon class="st5" points="311.5,639.3 401.7,621 288.6,632.9 							"/>
							<g>
								<path d="M351.8,681.4c19.5,15.7-12.2,30.3-105.8,34s-126.3-3.2-122.1-12.1c7.6-16.1,93.4-33.7,116.1-50.9
									C260.9,636.5,332.3,665.6,351.8,681.4z"/>
							</g>
							<g>
								<ellipse transform="matrix(1 -4.375202e-03 4.375202e-03 1 -2.7969 0.9345)" cx="212.2" cy="639.7" rx="114.3" ry="19.3"/>
							</g>
							<g>
								<ellipse transform="matrix(1 -4.375205e-03 4.375205e-03 1 -2.7572 1.0668)" cx="242.5" cy="630.7" rx="27.9" ry="4.7"/>
							</g>
							<ellipse transform="matrix(1 -4.375205e-03 4.375205e-03 1 -2.7483 1.1005)" cx="250.2" cy="628.7" rx="9.9" ry="1.7"/>
							<g>
								<path d="M341.6,684.7c12.9,10.4-8.1,20.1-70.2,22.5s-83.8-2.1-81-8c5-10.7,61.9-22.3,77-33.7
									C281.4,654.9,328.7,674.2,341.6,684.7z"/>
							</g>
							<g>
								<path d="M218.6,657.3c50.1-0.1,3.4,20.2,98.7,27.2c63,4.6,183.2,4.8,183.2,4.8s-291,29.7-343-4
									C140.2,673.9,162.6,657.3,218.6,657.3z"/>
							</g>
							<ellipse transform="matrix(1 -4.375205e-03 4.375205e-03 1 -2.9149 0.4211)" cx="94.8" cy="666.4" rx="70.8" ry="12"/>
							<ellipse transform="matrix(1 -4.375205e-03 4.375205e-03 1 -2.9153 0.4199)" cx="94.5" cy="666.5" rx="51.3" ry="8.7"/>
							<ellipse transform="matrix(1 -4.375200e-03 4.375200e-03 1 -2.9147 0.4359)" cx="98.2" cy="666.4" rx="35.2" ry="5.9"/>
							<ellipse transform="matrix(1 -4.375198e-03 4.375198e-03 1 -2.9149 0.4352)" cx="98" cy="666.4" rx="25.5" ry="4.3"/>
							<path d="M171.9,628.6l-38.9,5.2c-25.9,3.5-56.7,4.2-68.9,1.6l0,0c-12.2-2.6-13.3-5.7,12.6-9.2l33.7-2.5l18-4.6
								c25.9-3.5,56.1-4.1,68.3-1.5l0,0c4.6,1,125.6-15.2,123.9-13.8c-1,0.9-122.8,19.4-125.8,20.3
								C189.7,625.7,181.9,627.2,171.9,628.6z"/>
						</g>
					</g>
				</g>
			</g>
			<g>
				<path class="st8" d="M474,499l17,26l8.1,14.4l1,6l-9.2-1.1L456,596c0,0,31.6,48.8,54,25.2c22.4-23.5,2.1,8.1,2.1,8.1
					s-52,12.9-63.9-7.5c-11.8-20.4,0.4-31,0.4-31L483,534l-21-22L474,499z"/>
				<polygon class="st9" points="430,420.2 474,482 496,488 446.5,545.2 394.2,474.9 				"/>
				<g>
					<path class="st10" d="M401.7,278.9c-39,52.8,50.7,94.5,93.3,94.5s85-20.5,85-64.4c0,0-37.3,12-80,12S435.4,233.4,401.7,278.9z"
						/>
				</g>
			</g>
			<g>
				<g>
					<g>
						<path class="st11" d="M454.3,586.5c-23.5,51-1.6,111.5,49,135.2s110.7,1.6,134.3-49.3c23.5-51,1.6-111.5-49-135.2
							S477.8,535.6,454.3,586.5z M626.9,667.4c-20.8,45-74,64.6-118.7,43.6c-44.8-21-64.1-74.5-43.3-119.5
							c20.8-45,74-64.6,118.7-43.6C628.4,568.8,647.8,622.4,626.9,667.4z"/>
					</g>
					<g>
						<path class="st11" d="M533.4,623.6c-3.2,7-0.2,15.3,6.7,18.5c6.9,3.2,15.2,0.2,18.4-6.8c3.2-7,0.2-15.3-6.7-18.5
							C544.8,613.6,536.6,616.6,533.4,623.6z M552.1,632.4c-1.5,3.3-5.4,4.7-8.6,3.2s-4.7-5.4-3.2-8.7c1.5-3.3,5.4-4.7,8.6-3.2
							C552.2,625.2,553.6,629.1,552.1,632.4z M549.3,631.2c-0.8,1.6-2.7,2.3-4.3,1.6c-1.6-0.8-2.3-2.7-1.6-4.3
							c0.8-1.6,2.7-2.3,4.3-1.6C549.3,627.7,550,629.6,549.3,631.2z"/>
					</g>
					<g>
						<polygon class="st11" points="494.4,707.4 537.3,632.6 536.1,632 493.3,706.7 						"/>
						<polygon class="st11" points="509.5,716 536.6,634.1 535.4,633.7 508.3,715.6 						"/>
					</g>
					<g>
						<polygon class="st11" points="565,721.9 544.6,638.1 543.3,638.4 563.7,722.2 						"/>
						<polygon class="st11" points="581.8,717.6 545.2,639.6 544,640.2 580.6,718.2 						"/>
					</g>
					<g>
						<polygon class="st11" points="606,706.2 551.4,639.8 550.4,640.6 605,707 						"/>
						<polygon class="st11" points="619.3,695 552.5,640.9 551.7,642 618.5,696 						"/>
					</g>
					<g>
						
							<rect x="597.1" y="588.4" transform="matrix(4.400139e-02 -0.999 0.999 4.400139e-02 -59.1788 1200.6232)" class="st11" width="1.3" height="85.7"/>
						<polygon class="st11" points="641.2,614.9 556.6,628.5 556.8,629.8 641.4,616.2 						"/>
					</g>
					<g>
						<polygon class="st11" points="633.1,668.9 554.5,634.5 554,635.7 632.6,670.1 						"/>
						<polygon class="st11" points="639.9,652.8 556.1,635 555.8,636.3 639.6,654.1 						"/>
					</g>
					<g>
						<polygon class="st11" points="631.8,588.7 554.5,625.8 555,627 632.4,589.9 						"/>
						<polygon class="st11" points="624.2,572.9 555.9,625 556.7,626 625,574 						"/>
					</g>
					<g>
						<polygon class="st11" points="607.5,558.3 552.7,624.7 553.7,625.5 608.5,559.2 						"/>
						<polygon class="st11" points="594,547.2 553.6,623.3 554.8,623.9 595.2,547.9 						"/>
					</g>
					<g>
						
							<rect x="502.3" y="579" transform="matrix(1.830059e-02 -0.9998 0.9998 1.830059e-02 -44.1583 1114.3691)" class="st11" width="86.3" height="1.3"/>
						<polygon class="st11" points="528.2,536.3 543.8,621.2 545.1,620.9 529.5,536.1 						"/>
					</g>
					<g>
						<polygon class="st11" points="583.9,545 545.1,621.9 546.2,622.5 585.1,545.6 						"/>
						<polygon class="st11" points="568.4,537.2 545.7,620.4 546.9,620.8 569.6,537.6 						"/>
					</g>
					<g>
						<polygon class="st11" points="506.5,542.9 539.2,622.6 540.4,622.1 507.8,542.4 						"/>
						<polygon class="st11" points="490.5,549.7 538.4,621.2 539.5,620.5 491.6,548.9 						"/>
					</g>
					<g>
						<polygon class="st11" points="475.2,568.4 537.7,627.4 538.6,626.4 476.1,567.4 						"/>
						<polygon class="st11" points="463.4,581.2 536.4,626.4 537.1,625.3 464.1,580.1 						"/>
					</g>
					<g>
						<polygon class="st11" points="448.9,621.7 534.4,628.5 534.5,627.2 449,620.4 						"/>
						<polygon class="st11" points="447.7,639.2 532.7,628.5 532.6,627.2 447.5,637.8 						"/>
					</g>
					<g>
						<polygon class="st11" points="458.2,590.2 535.6,627.4 536.1,626.2 458.8,589 						"/>
						<polygon class="st11" points="450.9,606.1 534,626.8 534.4,625.6 451.2,604.8 						"/>
					</g>
					<g>
						<polygon class="st11" points="449.3,649.1 532.7,629.4 532.4,628.2 449,647.8 						"/>
						<polygon class="st11" points="453.4,666.1 531.2,630 530.7,628.8 452.8,664.9 						"/>
					</g>
					<g>
						<polygon class="st11" points="466.7,674.2 539.7,629 539,627.9 466,673.1 						"/>
						<polygon class="st11" points="475.9,689 538.4,630 537.5,629 475,688.1 						"/>
					</g>
					<g>
						
							<rect x="492.2" y="681" transform="matrix(5.270055e-02 -0.9986 0.9986 5.270055e-02 -173.6267 1180.3068)" class="st11" width="86.3" height="1.3"/>
						<polygon class="st11" points="551,725.6 538.3,640.2 537,640.5 549.7,725.8 						"/>
					</g>
					<g class="st4">
						<path class="st12" d="M545.7,726.4c-13.7,0-27-3-39.6-8.8c-45-21.1-65.7-73.9-48.3-120.3c-16.2,45.1,4.1,96.1,47.9,116.6
							c12.3,5.8,25.4,8.7,38.8,8.7c36,0,69.2-21.3,84.4-54.3c21.7-46.9,1.6-102.7-44.7-124.3c-12.3-5.8-25.4-8.7-38.9-8.7
							c-5.9,0-11.8,0.6-17.6,1.7c6.3-1.3,12.7-2,19.1-2c13.7,0,27,3,39.6,8.8c47.2,22.1,67.6,79.1,45.5,127.1
							C616.3,704.6,582.5,726.4,545.7,726.4L545.7,726.4z"/>
						<path class="st12" d="M546.9,535c13.7,0,27,3,39.5,8.8c47.2,22.1,67.5,79,45.4,126.9c-7.8,16.9-20.2,31-35.8,40.9
							c-15.2,9.6-32.6,14.7-50.4,14.7c-13.7,0-27-3-39.5-8.8c-40-18.7-60.7-62.5-52.6-104.5c-7.1,40.8,13.3,82.8,52.1,101
							c12.3,5.8,25.4,8.7,38.9,8.7c17.5,0,34.6-5,49.5-14.4c15.3-9.6,27.4-23.5,35.1-40c21.7-46.9,1.6-102.8-44.7-124.5
							c-12.3-5.8-25.4-8.7-38.9-8.7c-0.1,0-0.2,0-0.4,0C545.7,535,546.3,535,546.9,535 M546.9,534.7c-15.4,0-30.5,3.8-44,10.9
							c13.1-6.8,27.7-10.4,42.5-10.4c13,0,26.2,2.8,38.8,8.7c46.3,21.7,66.3,77.3,44.6,124.2c-15.8,34.2-49.3,54.3-84.3,54.3
							c-13,0-26.2-2.8-38.8-8.7c-46.3-21.7-66.3-77.3-44.6-124.2c2.5-5.3,5.4-10.3,8.6-15c-3.5,4.9-6.6,10.2-9.2,15.9
							c-22.2,48.1-1.8,105,45.5,127.2c12.8,6,26.3,8.8,39.6,8.8c35.8,0,70.2-20.6,86.4-55.7c22.2-48.1,1.8-105-45.5-127.2
							C573.7,537.6,560.2,534.7,546.9,534.7L546.9,534.7z M502.9,545.7c-12.9,6.7-24.4,16.5-33.1,28.9
							C478.6,562.2,490,552.4,502.9,545.7L502.9,545.7z"/>
					</g>
				</g>
				<g>
					<g>
						<path class="st11" d="M214.1,517.6c-54.2,0-98.1,45.6-98.1,101.8s43.9,101.8,98.1,101.8s98.1-45.6,98.1-101.8
							C312.3,563.1,268.3,517.6,214.1,517.6z M214.1,709.3c-47.9,0-86.8-40.3-86.8-90s38.8-90,86.8-90s86.8,40.3,86.8,90
							S262,709.3,214.1,709.3z"/>
					</g>
					<g>
						<path class="st11" d="M214.1,605.4c-7.4,0-13.4,6.2-13.4,13.9c0,7.7,6,13.9,13.4,13.9s13.4-6.2,13.4-13.9
							S221.6,605.4,214.1,605.4z M214.1,626.2c-3.5,0-6.3-2.9-6.3-6.5s2.8-6.5,6.3-6.5c3.5,0,6.3,2.9,6.3,6.5
							C220.4,623.3,217.6,626.2,214.1,626.2z M214,623.1c-1.7,0-3.1-1.5-3.1-3.2c0-1.8,1.4-3.2,3.1-3.2s3.1,1.5,3.1,3.2
							S215.7,623.1,214,623.1z"/>
					</g>
					<g>
						<polygon class="st11" points="124.9,605.2 207.8,612.8 207.9,611.5 125.1,603.9 						"/>
						<polygon class="st11" points="123.6,622.7 206.2,612.8 206.1,611.5 123.4,621.3 						"/>
					</g>
					<g>
						<polygon class="st11" points="141.1,675.7 206.1,621.8 205.3,620.8 140.3,674.7 						"/>
						<polygon class="st11" points="151.8,689.3 205,623 204,622.1 150.8,688.4 						"/>
					</g>
					<g>
						<polygon class="st11" points="171.7,706.6 207.3,628.7 206.2,628.1 170.5,706 						"/>
						<polygon class="st11" points="186.9,714 206.8,630.2 205.6,629.9 185.7,713.7 						"/>
					</g>
					<g>
						<polygon class="st11" points="250.3,707 218.6,627.3 217.4,627.8 249.1,707.5 						"/>
						<polygon class="st11" points="265.9,700.2 219.3,628.7 218.2,629.4 264.8,700.9 						"/>
					</g>
					<g>
						<polygon class="st11" points="215.3,715.6 213.2,629.3 212,629.3 214.1,715.6 						"/>
						<polygon class="st11" points="232.2,715 213.5,630.9 212.2,631.2 230.9,715.3 						"/>
					</g>
					<g>
						<polygon class="st11" points="285,680.5 220.8,625.6 220,626.7 284.2,681.6 						"/>
						<polygon class="st11" points="295.6,667 222.1,626.5 221.5,627.7 295,668.1 						"/>
					</g>
					<g>
						<polygon class="st11" points="301.5,645.5 221.1,623.5 220.8,624.8 301.2,646.8 						"/>
						<polygon class="st11" points="305.7,628.6 222.7,623.8 222.6,625.1 305.7,629.9 						"/>
					</g>
					<g>
						<polygon class="st11" points="295.2,579.8 219.2,614.8 219.7,616 295.8,581 						"/>
						<polygon class="st11" points="288.3,563.9 220.5,613.9 221.3,615 289,565 						"/>
					</g>
					<g>
						<polygon class="st11" points="303.5,618.4 220.4,615.4 220.3,616.7 303.5,619.7 						"/>
						<polygon class="st11" points="304,600.9 221.9,615.3 222.2,616.6 304.2,602.2 						"/>
					</g>
					<g>
						<polygon class="st11" points="273.7,546.9 217.4,610.3 218.3,611.2 274.6,547.8 						"/>
						<polygon class="st11" points="261.2,535.1 218.3,609 219.4,609.7 262.3,535.8 						"/>
					</g>
					<g>
						<polygon class="st11" points="238.6,529 212.6,611 213.8,611.4 239.8,529.4 						"/>
						<polygon class="st11" points="222.5,523.7 212.9,609.3 214.2,609.5 223.8,523.8 						"/>
					</g>
					<g>
						<polygon class="st11" points="181.2,527.6 210.3,608.4 211.5,607.9 182.4,527.1 						"/>
						<polygon class="st11" points="165.4,533.8 209.6,606.9 210.6,606.2 166.5,533.1 						"/>
					</g>
					<g>
						
							<rect x="169.6" y="565.3" transform="matrix(9.072333e-03 -1 1 9.072333e-03 -355.0304 773.5142)" class="st11" width="86.3" height="1.3"/>
						<polygon class="st11" points="195.6,522.7 211.6,607.4 212.8,607.1 196.9,522.5 						"/>
					</g>
					<g>
						<polygon class="st11" points="157.4,539.5 208.8,607.3 209.8,606.5 158.4,538.6 						"/>
						<polygon class="st11" points="144.2,550.3 207.6,606.1 208.5,605.1 145,549.3 						"/>
					</g>
					<g>
						<polygon class="st11" points="142.6,565.9 212,613.5 212.7,612.3 143.3,564.8 						"/>
						<polygon class="st11" points="133.4,580.6 210.6,612.7 211.1,611.5 133.8,579.3 						"/>
					</g>
					<g>
						<polygon class="st11" points="125.8,648.4 203,616.2 202.5,615 125.3,647.2 						"/>
						<polygon class="st11" points="132.2,664.6 201.6,617 200.9,615.9 131.5,663.5 						"/>
					</g>
					<g class="st4">
						<path class="st12" d="M213.3,524.9c-51.1,0-92.6,42.7-92.6,95.3s41.4,95.3,92.6,95.3s92.6-42.7,92.6-95.3
							C305.8,567.6,264.4,524.9,213.3,524.9z M214.3,711.3c-49.9,0-90.3-41.7-90.3-93.1s40.4-93.1,90.3-93.1s90.3,41.7,90.3,93.1
							S264.2,711.3,214.3,711.3z"/>
					</g>
				</g>
				<g>
					<polygon class="st13" points="476.6,512 277.9,510.6 277.8,501.1 476.5,502.5 					"/>
					<polygon class="st13" points="387.8,616.9 280.9,505.6 276.6,515.1 383.5,626.4 					"/>
					<polygon class="st13" points="216.8,618.5 382.3,614.2 382.2,621.6 216.7,625.9 					"/>
					<polygon class="st13" points="278.9,503.6 282.6,509.4 220.8,622.3 217.1,616.5 					"/>
					<polygon class="st13" points="285.9,514.5 276.4,516.9 272.1,483.2 281.6,480.8 					"/>
					<polygon class="st13" points="486.4,551.3 478.2,551.9 474.6,481.5 482.8,480.8 					"/>
					
						<ellipse transform="matrix(0.2657 -0.9641 0.9641 0.2657 -314.8754 817.4028)" class="st13" cx="379.1" cy="615.4" rx="19.6" ry="19.8"/>
					<ellipse class="st13" cx="218.4" cy="618.7" rx="9.9" ry="10.9"/>
					<path class="st14" d="M308.6,468c0.5,10.2-14.7,26.7-29.7,27.9c-15,1.2-40.2-15.7-40.7-25.9s21.5,1.2,36.5,0
						S308,457.7,308.6,468z"/>
					<polygon class="st14" points="463.5,618.1 423.6,620.2 423.7,612 463.6,609.9 					"/>
					<polygon class="st13" points="440.5,620.2 383.3,628.3 386.4,620.1 443.5,612 					"/>
					<path class="st13" d="M542.1,627.7l-5.2,5.1c-20.7-15.9-52.1-41.3-54-78.4l8.2-0.7C492.6,586.8,524,609.6,542.1,627.7z"/>
					<polygon class="st13" points="501.5,576.6 487.8,580.2 474,535.9 487.7,532.3 					"/>
					<polygon class="st13" points="383.6,617.6 380.4,610.8 476.4,506.9 479.6,513.8 					"/>
					<polygon class="st13" points="502.3,479.3 477.7,489.2 471.5,478 496.2,468.1 					"/>
					<polygon class="st13" points="500.7,478.9 527.5,457.7 522.2,452.8 495.4,474 					"/>
					<ellipse class="st14" cx="524.8" cy="449.5" rx="12.3" ry="10.5"/>
					<path class="st11" d="M343.7,591.1c-57.8,0-147.7,10.8-147.7,27.6s65.4,24.1,123.2,24.1s86.1-7.3,86.1-24.1
						S401.5,591.1,343.7,591.1z M320.2,639.2c-52.5,0-112-6.3-112-20.8s81.7-23.8,134.2-23.8s56,9.3,56,23.8
						S372.7,639.2,320.2,639.2z"/>
					<polygon class="st13" points="392.7,618 339.5,655.5 337.9,646.8 391.2,609.3 					"/>
					<polygon class="st14" points="364.3,663.9 329.3,665.4 325.3,655.3 360.4,653.8 					"/>
				</g>
			</g>
			<g>
				<path class="st15" d="M335.9,299.4l-79.4,104c-4.7,6.2-16.3,5.3-25.9-2l-24.8-18.9c-9.6-7.3-13.5-18.3-8.8-24.5l79.4-104
					c4.7-6.2,16.3-5.3,25.9,2l24.8,18.9C336.7,282.2,340.7,293.2,335.9,299.4z"/>
				<path class="st16" d="M322.5,312.5l-65.8,86.3c-3.9,5.1-13.5,4.4-21.5-1.7l-20.5-15.7c-7.9-6.1-11.2-15.1-7.3-20.3l65.8-86.3
					c3.9-5.1,13.5-4.4,21.5,1.7l20.5,15.7C323.1,298.3,326.4,307.4,322.5,312.5z"/>
				<path class="st8" d="M324,518.9l89,55.3l-90,56.4c0,0-2.6,24.4,32.8,24.4s41.9-6.9,41.9-6.9l-39.3-4.4l14.2-20.6l47.3-42.1
					l14.1,7.9l2-10.4l-8.4-5.6L351,518L324,518.9z"/>
				<path class="st9" d="M243,459c-3.9,15.3,88,106,88,106l52.3-61.8l-20.5-2.2L291,436C291,436,254,416,243,459z"/>
				<polygon class="st17" points="463.3,169.2 551.8,100.6 451.6,135.2 				"/>
				<g>
					<path class="st18" d="M454,373c0,77-39,139-116,139s-96-38-84-79c21.6-73.9,106-140,140.5-216C426.4,146.9,454,296,454,373z"/>
				</g>
				<g>
					<circle class="st18" cx="385" cy="153" r="92"/>
				</g>
				<g>
					<circle cx="417.5" cy="116.5" r="23"/>
				</g>
				<circle class="st12" cx="425.5" cy="108.5" r="8.5"/>
				<g>
					<path class="st19" d="M442.8,386.5c0,51.1-25.8,92.1-76.9,92.1s-63.6-25.2-55.7-52.4c14.4-49,70.3-92.8,93.1-143.2
						C424.5,236.6,442.8,335.5,442.8,386.5z"/>
				</g>
				<g>
					<path class="st10" d="M373,236c39.3,8.9-17,95,51,145c44.9,33,139,56,139,56s-257,85-265-82C295.3,299.3,329,226,373,236z"/>
				</g>
				<circle class="st15" cx="267" cy="256" r="57"/>
				<circle class="st16" cx="266.7" cy="256.4" r="41.3"/>
				<circle class="st15" cx="269.7" cy="256.4" r="28.3"/>
				<circle class="st16" cx="269.5" cy="256.6" r="20.5"/>
				<path class="st16" d="M364.2,93.5l-35.6,17.3c-23.7,11.5-48.5,9.1-55.6-5.4l0,0c-7-14.5-4.9-29.1,18.8-40.6l28.9-5.6l18.6-18.3
					c23.7-11.5,48-8.8,55,5.7l0,0C397.1,52,507.7-1.3,505,5.2c-1.6,4-115.1,67.8-118.4,71.6C381.1,83.2,373.4,89.1,364.2,93.5z"/>
			</g>
		</g>
	</g>
</g>
</svg>
