<?xml version="1.0" encoding="utf-8"?>
<!-- Generator: Adobe Illustrator 23.1.1, SVG Export Plug-In . SVG Version: 6.00 Build 0)  -->
<svg version="1.1" id="Layer_1" xmlns="http://www.w3.org/2000/svg" xmlns:xlink="http://www.w3.org/1999/xlink" x="0px" y="0px"
	 viewBox="0 0 5296.6 776.6" style="enable-background:new 0 0 5296.6 776.6;" xml:space="preserve">
<style type="text/css">
	.st0{fill:#B7E2F7;}
	.st1{fill:#C5F580;}
	.st2{opacity:0.8;}
	.st3{opacity:0.3;clip-path:url(#SVGID_2_);}
	.st4{opacity:0.5;}
	.st5{stroke:#FFFFFF;stroke-miterlimit:10;}
	.st6{clip-path:url(#SVGID_4_);}
	.st7{opacity:0.1;clip-path:url(#SVGID_6_);}
	.st8{fill:#FFA02F;}
	.st9{fill:#B98600;}
	.st10{fill:#735100;}
	.st11{fill:#4D4D4D;}
	.st12{fill:#FFFFFF;}
	.st13{fill:#666666;}
	.st14{fill:#603813;}
	.st15{fill:#5F3400;}
	.st16{fill:#5F4800;}
	.st17{fill:#FF9C17;}
	.st18{fill:#86D000;}
	.st19{fill:#FFD52E;}
	.st20{fill:#191919;}
	.st21{font-family:'Ubuntu-Bold';}
	.st22{font-size:320px;}
	.st23{font-size:116px;}
</style>
<g>
	<g>
		<ellipse class="st0" cx="326.5" cy="488.5" rx="286.5" ry="271"/>
		<path class="st1" d="M597,491.8c0,142.4-122,257.8-272.5,257.8S52,634.1,52,491.8s122.5,45.7,273,45.7S597,349.4,597,491.8z"/>
	</g>
	<g class="st2">
		
			<image style="overflow:visible;enable-background:new    ;" width="554" height="221" xlink:href="FDA8E86A64244612.png"  transform="matrix(1 0 0 1 25 232.5205)">
		</image>
	</g>
	<g>
		<g>
			<defs>
				<ellipse id="SVGID_1_" cx="326.5" cy="489.5" rx="286.5" ry="271"/>
			</defs>
			<clipPath id="SVGID_2_">
				<use xlink:href="#SVGID_1_"  style="overflow:visible;"/>
			</clipPath>
			<g class="st3">
				<g>
					<path d="M377,715.2l27.2,4.5l13.5,2.6l2.7,1.2l-11.5,0.2l-29.2,12.2c0,0,50.8,8.5,72,2.6s4.6,1.5,4.6,1.5s-60,5.1-79.6,1.5
						c-19.5-3.6-7.4-6.3-7.4-6.3l27.4-13.3l-31.1-3.5L377,715.2z"/>
					<polygon points="303.6,701.2 372.7,711.7 401,711.9 355.3,725.9 273.9,714.1 					"/>
					<g>
						<path d="M233.3,673.7c-34.1,12.7,85.5,16.9,137.4,14.8s98.1-8.3,87-17.2c0,0-42.3,4.2-94.2,6.3S262.8,662.7,233.3,673.7z"/>
					</g>
				</g>
				<g>
					<g>
						<g>
							<path d="M445.4,741.7c-16.7,13.9,32.1,27.8,109,30.9S707.3,767,724,753.1c16.7-13.9-32.1-27.8-109-30.9
								S462.1,727.8,445.4,741.7z M707.9,752.4c-14.8,12.3-81.9,20-150,17.3c-68-2.8-111.2-15-96.4-27.3s81.9-20,150-17.3
								C679.5,727.8,722.7,740.1,707.9,752.4z"/>
						</g>
						<g>
							<path d="M565.6,746.6c-2.3,1.9,4.4,3.8,14.9,4.2s20.9-0.8,23.2-2.7c2.3-1.9-4.4-3.8-14.9-4.2
								C578.3,743.5,567.9,744.7,565.6,746.6z M594.2,747.8c-1.1,0.9-6,1.5-10.9,1.3s-8.1-1.1-7-2c1.1-0.9,6-1.5,10.9-1.3
								C592.1,746,595.2,746.9,594.2,747.8z M589.9,747.6c-0.5,0.4-3,0.7-5.4,0.6c-2.5-0.1-4-0.5-3.5-1s3-0.7,5.4-0.6
								C588.8,746.7,590.4,747.2,589.9,747.6z"/>
						</g>
						<g>
							<polygon points="537.9,769.5 573.8,748.6 572,748.5 536.1,769.4 							"/>
							<polygon points="561.3,770.8 573.4,749 571.5,749 559.5,770.8 							"/>
						</g>
						<g>
							<polygon points="639.4,769.3 585.6,749.6 583.9,749.7 637.7,769.4 							"/>
							<polygon points="661.2,767.3 586.8,749.9 585.4,750.1 659.8,767.5 							"/>
						</g>
						<g>
							<polygon points="691.1,763.2 595.4,749.6 594.3,749.9 690,763.4 							"/>
							<polygon points="705.9,759.7 597.4,749.9 596.5,750.2 705.1,760 							"/>
						</g>
						<g>
							<polygon points="715.9,743 596.9,746.7 597.2,747 716.2,743.3 							"/>
							<polygon points="711.4,738.6 599.1,746.6 599.8,746.9 712.1,738.9 							"/>
						</g>
						<g>
							<polygon points="716.8,752.4 598.1,748.2 597.8,748.5 716.5,752.8 							"/>
							<polygon points="721.3,748.1 600.4,748.2 600.4,748.5 721.3,748.4 							"/>
						</g>
						<g>
							<polygon points="690.4,732.6 595.4,746 596.5,746.3 691.5,732.8 							"/>
							<polygon points="675.1,729.1 597,745.7 598.5,745.9 676.5,729.3 							"/>
						</g>
						<g>
							<polygon points="647.5,726.4 592.6,745.8 594.2,746 649.2,726.5 							"/>
							<polygon points="625.6,724.3 593.4,745.4 595.2,745.5 627.4,724.4 							"/>
						</g>
						<g>
							<polygon points="555.6,724.3 580,745.8 581.8,745.8 557.5,724.2 							"/>
							<polygon points="531.7,725.2 579.3,745.4 581,745.3 533.4,725.1 							"/>
						</g>
						<g>
							<polygon points="611,724.3 581.2,745.6 583.1,745.6 612.8,724.4 							"/>
							<polygon points="587.2,723.2 581.6,745.1 583.4,745.2 589.1,723.3 							"/>
						</g>
						<g>
							<polygon points="503.9,728 573.4,746 574.9,745.9 505.4,727.8 							"/>
							<polygon points="483.9,730.6 571.9,745.7 573.1,745.5 485.2,730.3 							"/>
						</g>
						<g>
							<polygon points="468.6,736 572.8,747.3 573.7,747 469.5,735.8 							"/>
							<polygon points="456.3,739.9 570.7,747.1 571.3,746.8 456.9,739.6 							"/>
						</g>
						<g>
							<polygon points="448.9,750.7 568.5,747.8 568.3,747.4 448.6,750.4 							"/>
							<polygon points="452.6,755.1 566.3,747.9 565.7,747.5 451.9,754.8 							"/>
						</g>
						<g>
							<polygon points="452,742.4 569.8,747.4 570.3,747.1 452.4,742.1 							"/>
							<polygon points="446.7,746.7 567.6,747.4 567.6,747 446.8,746.4 							"/>
						</g>
						<g>
							<polygon points="457.8,757.5 566.6,748.1 565.8,747.8 457,757.2 							"/>
							<polygon points="468.7,761.5 564.6,748.3 563.5,748 467.5,761.2 							"/>
						</g>
						<g>
							<polygon points="489.5,762.8 576,747.6 574.7,747.4 488.2,762.5 							"/>
							<polygon points="506.7,766 574.5,747.9 573,747.7 505.2,765.8 							"/>
						</g>
						<g>
							<polygon points="597.2,771.7 577,750.1 575.1,750.1 595.4,771.8 							"/>
							<polygon points="621.4,771 577.6,750.5 575.9,750.6 619.6,771.1 							"/>
						</g>
						<g class="st4">
							<path d="M455.2,742.3c-15.8,13.1,29.8,26.2,101.8,29.1c72,2.9,143.2-5.3,159-18.5c15.8-13.1-29.8-26.2-101.8-29.1
								C542.2,720.9,471,729.2,455.2,742.3z M710.7,752.5c-15.4,12.8-85,20.9-155.4,18s-115-15.6-99.6-28.4s85-20.9,155.4-18
								S726.1,739.7,710.7,752.5z"/>
						</g>
					</g>
					<g>
						<g>
							<path d="M93.7,737.6c-74.6,2.9-121,16.6-103.7,30.6s91.8,22.9,166.4,20s121-16.6,103.7-30.6
								C242.8,743.6,168.3,734.7,93.7,737.6z M152.7,785.2c-65.9,2.6-131.8-5.3-147.1-17.6c-15.3-12.3,25.8-24.5,91.7-27
								c66-2.6,131.8,5.3,147.1,17.6C259.7,770.5,218.7,782.6,152.7,785.2z"/>
						</g>
						<g>
							<path d="M120.7,759.4c-10.2,0.4-16.6,2.3-14.2,4.2s12.6,3.1,22.8,2.7c10.2-0.4,16.6-2.3,14.2-4.2
								C141.1,760.2,130.9,759,120.7,759.4z M127.1,764.6c-4.8,0.2-9.6-0.4-10.7-1.3c-1.1-0.9,1.9-1.8,6.7-2
								c4.8-0.2,9.6,0.4,10.7,1.3C134.9,763.5,131.9,764.4,127.1,764.6z M126,763.8c-2.4,0.1-4.8-0.2-5.3-0.6
								c-0.6-0.5,0.9-0.9,3.3-1c2.4-0.1,4.8,0.2,5.3,0.6C129.8,763.3,128.4,763.7,126,763.8z"/>
						</g>
						<g>
							<polygon points="-2,764.2 114.3,761.6 114.1,761.3 -2.3,763.9 							"/>
							<polygon points="1.4,768.6 112.2,761.7 111.6,761.4 0.8,768.3 							"/>
						</g>
						<g>
							<polygon points="41.9,780.8 114.7,763.9 113.3,763.7 40.5,780.6 							"/>
							<polygon points="60.7,783.6 113.5,764.3 111.9,764.1 59.1,783.5 							"/>
						</g>
						<g>
							<polygon points="93.5,786.8 118.6,765.6 116.8,765.5 91.7,786.8 							"/>
							<polygon points="116.8,787.9 118.3,766 116.5,766 115,787.8 							"/>
						</g>
						<g>
							<polygon points="201.8,782.7 133.6,764.6 132.1,764.8 200.4,782.9 							"/>
							<polygon points="221.1,780.1 135,764.9 133.8,765.1 219.9,780.4 							"/>
						</g>
						<g>
							<polygon points="156.3,786.7 126.9,765.4 125.1,765.5 154.6,786.8 							"/>
							<polygon points="179.3,785.6 127.7,765.8 126.1,765.9 177.7,785.8 							"/>
						</g>
						<g>
							<polygon points="241.4,774.2 136.2,764.1 135.4,764.4 240.6,774.5 							"/>
							<polygon points="251.8,770.3 138.3,764.2 137.8,764.5 251.4,770.6 							"/>
						</g>
						<g>
							<polygon points="253.4,764.6 135.9,763.5 135.9,763.9 253.3,765 							"/>
							<polygon points="253.9,760.2 138.1,763.5 138.4,763.8 254.2,760.5 							"/>
						</g>
						<g>
							<polygon points="224.5,748.6 130.6,761.5 131.6,761.7 225.6,748.9 							"/>
							<polygon points="210,745.1 132.2,761.2 133.5,761.4 211.4,745.3 							"/>
						</g>
						<g>
							<polygon points="247.7,757.8 132.4,761.5 132.8,761.9 248.1,758.1 							"/>
							<polygon points="243,753.4 134.5,761.4 135.2,761.7 243.7,753.7 							"/>
						</g>
						<g>
							<polygon points="184.7,741.6 126.7,760.5 128.3,760.6 186.3,741.8 							"/>
							<polygon points="163.9,739.4 127.6,760.1 129.3,760.2 165.6,739.5 							"/>
						</g>
						<g>
							<polygon points="130.9,739.1 120.3,760.9 122.1,760.9 132.6,739.1 							"/>
							<polygon points="107.1,738.6 120.3,760.4 122.1,760.4 108.9,738.6 							"/>
						</g>
						<g>
							<polygon points="51.4,741.9 116.3,760.4 117.8,760.2 52.9,741.7 							"/>
							<polygon points="31.6,744.3 114.9,760 116.2,759.8 32.9,744 							"/>
						</g>
						<g>
							<polygon points="93.1,739 118.5,760.4 120.3,760.4 94.8,738.9 							"/>
							<polygon points="69.8,739.9 117.8,760 119.5,759.9 71.5,739.7 							"/>
						</g>
						<g>
							<polygon points="22.3,746.1 113.9,760.2 115.1,759.9 23.5,745.8 							"/>
							<polygon points="7.5,749.5 112,759.9 112.9,759.6 8.4,749.2 							"/>
						</g>
						<g>
							<polygon points="10.1,753.5 120.3,761.5 120.9,761.2 10.7,753.2 							"/>
							<polygon points="2,757.6 118.1,761.4 118.4,761.1 2.2,757.3 							"/>
						</g>
						<g>
							<polygon points="12.4,774.9 108.7,762.7 107.7,762.4 11.4,774.6 							"/>
							<polygon points="26.2,778.5 107,763 105.7,762.7 24.9,778.3 							"/>
						</g>
						<g class="st4">
							<path d="M94.8,739.5c-70.4,2.8-114.3,15.6-98.1,28.7s86.4,21.4,156.7,18.6c70.4-2.8,114.3-15.6,98.1-28.7
								C235.3,745,165.1,736.7,94.8,739.5z M153.6,785.7C85,788.4,16.5,780.2,0.7,767.5c-15.8-12.8,27-25.3,95.6-28
								s137.1,5.5,152.9,18.2S222.2,783,153.6,785.7z"/>
						</g>
					</g>
					<g>
						<polygon points="453.1,722 179.3,732.4 176.2,730.1 450.1,719.6 						"/>
						<polygon points="363.3,752.8 181.9,731 178.9,733.6 360.3,755.4 						"/>
						<polygon points="128.5,762.5 354.9,752.5 357,754.3 130.6,764.3 						"/>
						<polygon points="178.5,730.6 185.4,731.9 135.1,763.2 128.2,762 						"/>
						<polygon points="191.6,732.9 179.2,734 162.9,725.9 175.2,724.8 						"/>
						<polygon points="478.8,731.2 467.6,731.8 441,714.5 452.1,713.9 						"/>
						<ellipse transform="matrix(1.125332e-03 -1 1 1.125332e-03 -402.4782 1102.9371)" cx="350.9" cy="752.9" rx="5" ry="28"/>
						<ellipse transform="matrix(9.923325e-03 -1 1 9.923325e-03 -632.9225 885.7141)" cx="130.8" cy="762.5" rx="2.8" ry="14"/>
						<path d="M208.4,720.1c3.9,2.5-12,7.4-32.3,8.5s-60.1-1.7-64-4.2s29.9-0.9,50.2-2C182.6,721.4,204.5,717.6,208.4,720.1z"/>
						<polygon points="439.9,742.8 385.7,745.5 383.3,743.5 437.5,740.8 						"/>
						<polygon points="413.2,744.4 357.9,755.1 354,753 409.4,742.3 						"/>
						<path d="M578.9,747.1l-5.6,1.5c-33.4-2.8-84.4-7.4-98.4-16.5l11.1-0.6C498.3,739.7,548.4,743.6,578.9,747.1z"/>
						<polygon points="507.3,736.7 489.6,738.3 457,728 474.7,726.4 						"/>
						<polygon points="357.7,753.2 351.3,751.7 451.4,720.7 457.8,722.2 						"/>
						<polygon points="478.5,712.5 447.6,716.2 435.8,713.8 466.7,710 						"/>
						<polygon points="476.1,712.4 506.5,705.7 497.7,704.8 467.3,711.5 						"/>
						<ellipse transform="matrix(1 -9.785984e-03 9.785984e-03 1 -6.864 4.9298)" cx="500.3" cy="703.9" rx="17.3" ry="2.7"/>
						<path d="M294.6,748.8C215,752,94.7,759.5,99.9,763.7s97.4,2.4,177-0.7s116.2-6.5,111-10.7S374.1,745.7,294.6,748.8z
							 M277.1,762c-72.3,2.8-156.1,4.5-160.6,0.9c-4.5-3.6,105.1-10.3,177.4-13.2c72.3-2.8,80-0.7,84.4,2.9
							C382.8,756.2,349.4,759.2,277.1,762z"/>
						<polygon points="370.4,752.8 308.6,765 303.8,763 365.6,750.8 						"/>
						<polygon points="333,763.9 285.2,766.2 276.7,763.9 324.5,761.6 						"/>
					</g>
				</g>
				<g>
					<path d="M189.8,686.6l-70.2,25c-4.2,1.5-18.5,1.9-32,0.8l-34.9-2.7c-13.5-1-21.1-3.1-16.9-4.6l70.2-25.1
						c4.2-1.5,18.5-1.9,32-0.8l34.9,2.7C186.4,683.1,194,685.1,189.8,686.6z"/>
					<path d="M176.7,690l-58.2,20.8c-3.5,1.2-15.3,1.5-26.6,0.7L63,709.2c-11.2-0.9-17.5-2.6-14-3.8l58.2-20.8
						c3.5-1.2,15.3-1.5,26.6-0.7l28.9,2.2C173.9,687,180.2,688.7,176.7,690z"/>
					<path d="M230.9,732.1l124.4,8.8l-92.8,17.7c0,0,4,5.9,47.1,4.2s48.9-3.6,48.9-3.6l-49,0.8l11.2-5.5l45.1-12.2l19.5,1.2
						l-0.6-2.5l-11.8-0.9l-109.2-9.3L230.9,732.1z"/>
					<path d="M117.2,723.7C116.3,727,251,741.1,251,741.1l48-15.1l-25.5,0.5l-103.8-9.8C169.8,716.7,119.7,714.4,117.2,723.7z"/>
					<polygon class="st5" points="311.7,653.9 401.9,635.7 288.8,647.5 					"/>
					<g>
						<path d="M352,696c19.5,15.7-12.2,30.3-105.8,34s-126.3-3.2-122.1-12.1c7.6-16.1,93.4-33.7,116.1-50.9
							C261.1,651.1,332.5,680.3,352,696z"/>
					</g>
					<g>
						<ellipse transform="matrix(1 -4.375202e-03 4.375202e-03 1 -2.861 0.9355)" cx="212.4" cy="654.4" rx="114.3" ry="19.3"/>
					</g>
					<g>
						<ellipse transform="matrix(1 -4.375205e-03 4.375205e-03 1 -2.8212 1.0679)" cx="242.7" cy="645.4" rx="27.9" ry="4.7"/>
					</g>
					<ellipse transform="matrix(1 -4.375205e-03 4.375205e-03 1 -2.8123 1.1015)" cx="250.4" cy="643.3" rx="9.9" ry="1.7"/>
					<g>
						<path d="M341.8,699.3c12.9,10.4-8.1,20.1-70.2,22.5s-83.8-2.1-81-8c5-10.7,61.9-22.3,77-33.7
							C281.6,669.6,328.9,688.9,341.8,699.3z"/>
					</g>
					<g>
						<path d="M218.8,671.9c50.1-0.1,3.4,20.2,98.7,27.2c63,4.6,183.2,4.8,183.2,4.8s-291,29.7-343-4
							C140.4,688.6,162.8,672,218.8,671.9z"/>
					</g>
					<ellipse transform="matrix(1 -4.375207e-03 4.375207e-03 1 -2.9789 0.4221)" cx="95" cy="681.1" rx="70.8" ry="12"/>
					<ellipse transform="matrix(1 -4.375202e-03 4.375202e-03 1 -2.9793 0.4209)" cx="94.7" cy="681.2" rx="51.3" ry="8.7"/>
					<ellipse transform="matrix(1 -4.375200e-03 4.375200e-03 1 -2.9787 0.4369)" cx="98.4" cy="681" rx="35.2" ry="5.9"/>
					<ellipse transform="matrix(1 -4.375211e-03 4.375211e-03 1 -2.9789 0.4363)" cx="98.2" cy="681.1" rx="25.5" ry="4.3"/>
					<path d="M172.1,643.2l-38.9,5.2c-25.9,3.5-56.7,4.2-68.9,1.6l0,0c-12.2-2.6-13.3-5.7,12.6-9.2l33.7-2.5l18-4.6
						c25.9-3.5,56.1-4.1,68.3-1.5l0,0c4.6,1,125.6-15.2,123.9-13.8c-1,0.9-122.8,19.4-125.8,20.3
						C189.9,640.3,182.1,641.9,172.1,643.2z"/>
				</g>
			</g>
		</g>
	</g>
	<g>
		<g>
			<defs>
				<path id="SVGID_3_" d="M613,372.5c82.7,218.3,104,299,104,299c86.9,68.5,104.3,116.6,10,89c0,0-357.9-1-398.5-1
					C170.3,759.5,42,638.2,42,488.5s115.6-438.1,422-509C546.8-39.6,544.1,190.6,613,372.5z"/>
			</defs>
			<clipPath id="SVGID_4_">
				<use xlink:href="#SVGID_3_"  style="overflow:visible;"/>
			</clipPath>
			<g class="st6">
				<g>
					<g>
						<defs>
							<ellipse id="SVGID_5_" cx="326.3" cy="490.4" rx="286.5" ry="271"/>
						</defs>
						<clipPath id="SVGID_6_">
							<use xlink:href="#SVGID_5_"  style="overflow:visible;"/>
						</clipPath>
						<g class="st7">
							<g>
								<path d="M376.8,716.1l27.2,4.5l13.5,2.6l2.7,1.2l-11.5,0.2l-29.2,12.2c0,0,50.8,8.5,72,2.6c21.2-5.9,4.6,1.5,4.6,1.5
									s-60,5.1-79.6,1.5c-19.5-3.6-7.4-6.3-7.4-6.3l27.4-13.3l-31.1-3.5L376.8,716.1z"/>
								<polygon points="303.4,702.1 372.5,712.6 400.8,712.8 355.1,726.8 273.7,714.9 								"/>
								<g>
									<path d="M233.1,674.6c-34.1,12.7,85.5,16.9,137.4,14.8s98.1-8.3,87-17.2c0,0-42.3,4.2-94.2,6.3S262.6,663.6,233.1,674.6z"
										/>
								</g>
							</g>
							<g>
								<g>
									<g>
										<path d="M445.2,742.6c-16.7,13.9,32.1,27.8,109,30.9s152.9-5.6,169.6-19.5s-32.1-27.8-109-30.9S461.9,728.6,445.2,742.6z
											 M707.7,753.3c-14.8,12.3-81.9,20-150,17.3c-68-2.8-111.2-15-96.4-27.3s81.9-20,150-17.3
											C679.3,728.7,722.5,741,707.7,753.3z"/>
									</g>
									<g>
										<path d="M565.4,747.5c-2.3,1.9,4.4,3.8,14.9,4.2s20.9-0.8,23.2-2.7s-4.4-3.8-14.9-4.2S567.7,745.6,565.4,747.5z
											 M593.9,748.7c-1.1,0.9-6,1.5-10.9,1.3c-4.9-0.2-8.1-1.1-7-2c1.1-0.9,6-1.5,10.9-1.3C591.9,746.9,595,747.8,593.9,748.7z
											 M589.7,748.5c-0.5,0.4-3,0.7-5.4,0.6c-2.5-0.1-4-0.5-3.5-1c0.5-0.4,3-0.7,5.4-0.6C588.6,747.6,590.2,748.1,589.7,748.5z"
											/>
									</g>
									<g>
										<polygon points="537.7,770.4 573.6,749.5 571.8,749.4 535.9,770.3 										"/>
										<polygon points="561.1,771.7 573.2,749.9 571.3,749.9 559.2,771.7 										"/>
									</g>
									<g>
										<polygon points="639.2,770.2 585.4,750.5 583.7,750.6 637.5,770.3 										"/>
										<polygon points="661,768.2 586.6,750.8 585.2,751 659.5,768.4 										"/>
									</g>
									<g>
										<polygon points="690.9,764.1 595.2,750.5 594.1,750.8 689.8,764.3 										"/>
										<polygon points="705.7,760.5 597.2,750.8 596.3,751.1 704.9,760.8 										"/>
									</g>
									<g>
										<polygon points="715.7,743.9 596.7,747.6 597,747.9 716,744.2 										"/>
										<polygon points="711.2,739.5 598.9,747.5 599.6,747.8 711.9,739.8 										"/>
									</g>
									<g>
										<polygon points="716.6,753.3 597.9,749.1 597.5,749.4 716.3,753.7 										"/>
										<polygon points="721,749 600.2,749.1 600.2,749.4 721.1,749.3 										"/>
									</g>
									<g>
										<polygon points="690.2,733.5 595.2,746.9 596.3,747.2 691.3,733.7 										"/>
										<polygon points="674.9,730 596.8,746.6 598.2,746.8 676.3,730.2 										"/>
									</g>
									<g>
										<polygon points="647.3,727.3 592.4,746.7 594,746.9 649,727.4 										"/>
										<polygon points="625.4,725.2 593.2,746.3 595,746.4 627.2,725.3 										"/>
									</g>
									<g>
										<polygon points="555.4,725.2 579.8,746.7 581.6,746.6 557.2,725.1 										"/>
										<polygon points="531.5,726.1 579.1,746.3 580.8,746.2 533.2,726 										"/>
									</g>
									<g>
										<polygon points="610.8,725.2 581,746.4 582.8,746.5 612.6,725.3 										"/>
										<polygon points="587,724.1 581.4,746 583.2,746 588.9,724.2 										"/>
									</g>
									<g>
										<polygon points="503.7,728.9 573.2,746.9 574.7,746.7 505.2,728.7 										"/>
										<polygon points="483.7,731.5 571.7,746.6 572.9,746.4 485,731.2 										"/>
									</g>
									<g>
										<polygon points="468.4,736.9 572.5,748.2 573.5,747.9 469.3,736.6 										"/>
										<polygon points="456.1,740.8 570.5,748 571.1,747.7 456.7,740.4 										"/>
									</g>
									<g>
										<polygon points="448.7,751.6 568.3,748.6 568,748.3 448.4,751.3 										"/>
										<polygon points="452.4,756 566.1,748.7 565.5,748.4 451.7,755.7 										"/>
									</g>
									<g>
										<polygon points="451.8,743.3 569.7,748.3 570.1,748 452.2,743 										"/>
										<polygon points="446.5,747.6 567.4,748.3 567.4,747.9 446.6,747.3 										"/>
									</g>
									<g>
										<polygon points="457.6,758.4 566.4,749 565.6,748.7 456.8,758.1 										"/>
										<polygon points="468.5,762.4 564.4,749.2 563.3,748.9 467.3,762.1 										"/>
									</g>
									<g>
										<polygon points="489.3,763.7 575.8,748.5 574.5,748.2 488,763.4 										"/>
										<polygon points="506.5,766.9 574.3,748.8 572.8,748.6 505,766.7 										"/>
									</g>
									<g>
										<polygon points="597,772.6 576.8,751 574.9,751 595.2,772.7 										"/>
										<polygon points="621.2,771.9 577.4,751.4 575.7,751.5 619.4,772 										"/>
									</g>
									<g class="st4">
										<path d="M455,743.2c-15.8,13.1,29.8,26.2,101.8,29.1c72,2.9,143.2-5.3,159-18.5c15.8-13.1-29.8-26.2-101.8-29.1
											C541.9,721.8,470.8,730.1,455,743.2z M710.5,753.4c-15.4,12.8-85,20.9-155.4,18s-115-15.6-99.6-28.4s85-20.9,155.4-18
											S725.9,740.5,710.5,753.4z"/>
									</g>
								</g>
								<g>
									<g>
										<path d="M93.5,738.5c-74.6,2.9-121,16.6-103.7,30.6s91.8,22.9,166.4,20s121-16.6,103.7-30.6
											C242.6,744.5,168.1,735.5,93.5,738.5z M152.5,786.1c-65.9,2.6-131.8-5.3-147.1-17.6c-15.3-12.3,25.8-24.5,91.7-27
											c65.9-2.6,131.8,5.3,147.1,17.6S218.5,783.5,152.5,786.1z"/>
									</g>
									<g>
										<path d="M120.5,760.3c-10.2,0.4-16.6,2.3-14.2,4.2s12.6,3.1,22.8,2.7s16.6-2.3,14.2-4.2S130.8,759.9,120.5,760.3z
											 M126.9,765.5c-4.8,0.2-9.6-0.4-10.7-1.3s1.9-1.8,6.7-2c4.8-0.2,9.6,0.4,10.7,1.3C134.7,764.4,131.7,765.3,126.9,765.5z
											 M125.8,764.7c-2.4,0.1-4.8-0.2-5.3-0.6c-0.6-0.5,0.9-0.9,3.3-1c2.4-0.1,4.8,0.2,5.3,0.6
											C129.6,764.2,128.1,764.6,125.8,764.7z"/>
									</g>
									<g>
										<polygon points="-2.3,765.1 114.1,762.5 113.9,762.1 -2.5,764.8 										"/>
										<polygon points="1.2,769.5 112,762.6 111.3,762.3 0.6,769.2 										"/>
									</g>
									<g>
										<polygon points="41.7,781.7 114.5,764.8 113.1,764.6 40.3,781.5 										"/>
										<polygon points="60.5,784.5 113.3,765.2 111.7,765 58.9,784.4 										"/>
									</g>
									<g>
										<polygon points="93.2,787.7 118.3,766.4 116.6,766.4 91.5,787.7 										"/>
										<polygon points="116.6,788.7 118.1,766.9 116.3,766.8 114.8,788.7 										"/>
									</g>
									<g>
										<polygon points="201.6,783.6 133.4,765.5 131.9,765.7 200.1,783.8 										"/>
										<polygon points="220.9,781 134.8,765.8 133.6,766 219.7,781.3 										"/>
									</g>
									<g>
										<polygon points="156.1,787.6 126.7,766.3 124.9,766.4 154.4,787.7 										"/>
										<polygon points="179.1,786.5 127.5,766.7 125.8,766.8 177.5,786.7 										"/>
									</g>
									<g>
										<polygon points="241.2,775.1 136,765 135.1,765.3 240.4,775.4 										"/>
										<polygon points="251.6,771.2 138.1,765.1 137.6,765.4 251.2,771.5 										"/>
									</g>
									<g>
										<polygon points="253.2,765.5 135.7,764.4 135.6,764.7 253.1,765.8 										"/>
										<polygon points="253.7,761.1 137.9,764.4 138.2,764.7 254,761.4 										"/>
									</g>
									<g>
										<polygon points="224.3,749.5 130.4,762.3 131.4,762.6 225.4,749.8 										"/>
										<polygon points="209.8,746 132,762.1 133.3,762.3 211.2,746.2 										"/>
									</g>
									<g>
										<polygon points="247.5,758.7 132.2,762.4 132.6,762.8 247.9,759 										"/>
										<polygon points="242.8,754.3 134.3,762.3 135,762.6 243.5,754.6 										"/>
									</g>
									<g>
										<polygon points="184.5,742.5 126.5,761.3 128.1,761.5 186.1,742.7 										"/>
										<polygon points="163.7,740.3 127.4,761 129.1,761.1 165.4,740.4 										"/>
									</g>
									<g>
										<polygon points="130.6,740 120.1,761.8 121.9,761.8 132.4,740 										"/>
										<polygon points="106.9,739.5 120.1,761.3 121.9,761.3 108.7,739.5 										"/>
									</g>
									<g>
										<polygon points="51.2,742.7 116.1,761.2 117.6,761.1 52.7,742.6 										"/>
										<polygon points="31.5,745.2 114.7,760.9 116,760.7 32.7,744.9 										"/>
									</g>
									<g>
										<polygon points="92.8,739.9 118.3,761.3 120.1,761.3 94.6,739.8 										"/>
										<polygon points="69.6,740.8 117.6,760.9 119.2,760.8 71.3,740.6 										"/>
									</g>
									<g>
										<polygon points="22.1,747 113.7,761.1 114.8,760.8 23.3,746.7 										"/>
										<polygon points="7.3,750.4 111.8,760.8 112.7,760.5 8.2,750.1 										"/>
									</g>
									<g>
										<polygon points="9.9,754.4 120.1,762.4 120.7,762.1 10.5,754.1 										"/>
										<polygon points="1.8,758.5 117.9,762.3 118.2,762 2,758.2 										"/>
									</g>
									<g>
										<polygon points="12.2,775.8 108.5,763.6 107.5,763.3 11.2,775.5 										"/>
										<polygon points="26,779.4 106.8,763.8 105.5,763.6 24.7,779.2 										"/>
									</g>
									<g class="st4">
										<path d="M94.6,740.4C24.2,743.1-19.7,756-3.5,769s86.4,21.4,156.7,18.6c70.4-2.8,114.3-15.6,98.1-28.7
											S164.9,737.6,94.6,740.4z M153.4,786.6c-68.6,2.7-137.1-5.5-152.9-18.2s27-25.3,95.6-28s137.1,5.5,152.9,18.2
											C264.8,771.3,222,783.9,153.4,786.6z"/>
									</g>
								</g>
								<g>
									<polygon points="452.9,722.9 179.1,733.3 176,730.9 449.9,720.5 									"/>
									<polygon points="363.1,753.7 181.7,731.9 178.6,734.5 360.1,756.3 									"/>
									<polygon points="128.3,763.4 354.7,753.4 356.8,755.2 130.4,765.2 									"/>
									<polygon points="178.3,731.5 185.2,732.7 134.9,764.1 128,762.9 									"/>
									<polygon points="191.3,733.8 179,734.9 162.6,726.8 175,725.7 									"/>
									<polygon points="478.5,732.1 467.4,732.7 440.8,715.4 451.9,714.8 									"/>
									<ellipse transform="matrix(1.125332e-03 -1 1 1.125332e-03 -403.5699 1103.6141)" cx="350.6" cy="753.8" rx="5" ry="28"/>
									<ellipse transform="matrix(9.923325e-03 -1 1 9.923325e-03 -634.0125 886.3834)" cx="130.6" cy="763.4" rx="2.8" ry="14"/>
									<path d="M208.2,721c3.9,2.5-12,7.4-32.3,8.5s-60.1-1.7-64-4.2c-3.9-2.5,29.9-0.9,50.2-2C182.3,722.3,204.3,718.5,208.2,721
										z"/>
									<polygon points="439.7,743.7 385.5,746.4 383.1,744.4 437.3,741.7 									"/>
									<polygon points="413,745.3 357.7,756 353.8,753.9 409.2,743.2 									"/>
									<path d="M578.7,748l-5.6,1.5c-33.4-2.8-84.4-7.4-98.4-16.5l11.1-0.6C498.1,740.6,548.2,744.5,578.7,748z"/>
									<polygon points="507.1,737.6 489.4,739.2 456.8,728.9 474.5,727.3 									"/>
									<polygon points="357.5,754.1 351,752.6 451.2,721.6 457.6,723.1 									"/>
									<polygon points="478.3,713.3 447.5,717.1 435.6,714.7 466.5,710.9 									"/>
									<polygon points="475.9,713.3 506.3,706.6 497.5,705.7 467.1,712.4 									"/>
									<ellipse transform="matrix(1 -9.785984e-03 9.785984e-03 1 -6.8728 4.9278)" cx="500.1" cy="704.8" rx="17.3" ry="2.7"/>
									<path d="M294.4,749.7c-79.5,3.1-199.9,10.7-194.7,14.9s97.4,2.4,177-0.7s116.2-6.5,111-10.7S373.9,746.6,294.4,749.7z
										 M276.9,762.9c-72.3,2.8-156.1,4.5-160.6,0.9c-4.5-3.6,105.1-10.3,177.4-13.2c72.3-2.8,80-0.7,84.4,2.9
										C382.6,757.1,349.2,760.1,276.9,762.9z"/>
									<polygon points="370.1,753.7 308.4,765.9 303.6,763.9 365.4,751.7 									"/>
									<polygon points="332.8,764.8 285,767.1 276.5,764.8 324.3,762.5 									"/>
								</g>
							</g>
							<g>
								<path d="M189.6,687.5l-70.2,25c-4.2,1.5-18.5,1.9-32,0.8l-34.9-2.7c-13.5-1-21.1-3.1-16.9-4.6l70.2-25
									c4.2-1.5,18.5-1.9,32-0.8l34.9,2.7C186.2,684,193.8,686,189.6,687.5z"/>
								<path d="M176.5,690.9l-58.2,20.8c-3.5,1.2-15.3,1.5-26.6,0.7l-28.9-2.2c-11.2-0.9-17.5-2.6-14-3.8l58.2-20.8
									c3.5-1.2,15.3-1.5,26.6-0.7l28.9,2.2C173.7,687.9,180,689.6,176.5,690.9z"/>
								<path d="M230.7,733l124.4,8.8l-92.8,17.7c0,0,4,5.9,47.1,4.2s48.9-3.6,48.9-3.6l-49,0.8l11.2-5.5l45.1-12.2l19.5,1.2
									l-0.6-2.5l-11.8-0.9l-109.2-9.3L230.7,733z"/>
								<path d="M117,724.6c-0.9,3.3,133.8,17.4,133.8,17.4l48-15.1l-25.5,0.5l-103.8-9.8C169.5,717.6,119.5,715.3,117,724.6z"/>
								<polygon class="st5" points="311.5,654.8 401.7,636.6 288.6,648.4 								"/>
								<g>
									<path d="M351.8,696.9c19.5,15.7-12.2,30.3-105.8,34s-126.3-3.2-122.1-12.1c7.6-16.1,93.4-33.7,116.1-50.9
										C260.9,652,332.3,681.2,351.8,696.9z"/>
								</g>
								<g>
									<ellipse transform="matrix(1 -4.375202e-03 4.375202e-03 1 -2.8648 0.9346)" cx="212.2" cy="655.3" rx="114.3" ry="19.3"/>
								</g>
								<g>
									<ellipse transform="matrix(1 -4.375205e-03 4.375205e-03 1 -2.8251 1.067)" cx="242.5" cy="646.2" rx="27.9" ry="4.7"/>
								</g>
								<ellipse transform="matrix(1 -4.375205e-03 4.375205e-03 1 -2.8162 1.1006)" cx="250.2" cy="644.2" rx="9.9" ry="1.7"/>
								<g>
									<path d="M341.6,700.2c12.9,10.4-8.1,20.1-70.2,22.5s-83.8-2.1-81-8c5-10.7,61.9-22.3,77-33.7
										C281.4,670.4,328.7,689.8,341.6,700.2z"/>
								</g>
								<g>
									<path d="M218.6,672.8c50.1-0.1,3.4,20.2,98.7,27.2c63,4.6,183.2,4.8,183.2,4.8s-291,29.7-343-4
										C140.2,689.4,162.6,672.9,218.6,672.8z"/>
								</g>
								<ellipse transform="matrix(1 -4.375205e-03 4.375205e-03 1 -2.9828 0.4213)" cx="94.8" cy="682" rx="70.8" ry="12"/>
								<ellipse transform="matrix(1 -4.375205e-03 4.375205e-03 1 -2.9832 0.42)" cx="94.5" cy="682.1" rx="51.3" ry="8.7"/>
								<ellipse transform="matrix(1 -4.375200e-03 4.375200e-03 1 -2.9826 0.436)" cx="98.2" cy="681.9" rx="35.2" ry="5.9"/>
								<ellipse transform="matrix(1 -4.375198e-03 4.375198e-03 1 -2.9828 0.4354)" cx="98" cy="682" rx="25.5" ry="4.3"/>
								<path d="M171.9,644.1l-38.9,5.2c-25.9,3.5-56.7,4.2-68.9,1.6l0,0c-12.2-2.6-13.3-5.7,12.6-9.2l33.7-2.5l18-4.6
									c25.9-3.5,56.1-4.1,68.3-1.5l0,0c4.6,1,125.6-15.2,123.9-13.8c-1,0.9-122.8,19.4-125.8,20.3
									C189.7,641.2,181.9,642.8,171.9,644.1z"/>
							</g>
						</g>
					</g>
				</g>
				<g>
					<path class="st8" d="M474,514.5l17,26l8.1,14.4l1,6l-9.2-1.1L456,611.6c0,0,31.6,48.8,54,25.2c22.4-23.5,2.1,8.1,2.1,8.1
						s-52,12.9-63.9-7.5c-11.8-20.4,0.4-31,0.4-31l34.4-56.9l-21-22L474,514.5z"/>
					<polygon class="st9" points="430,435.8 474,497.5 496,503.5 446.5,560.8 394.2,490.4 					"/>
					<g>
						<path class="st10" d="M401.7,294.4c-39,52.8,50.7,94.5,93.3,94.5s85-20.5,85-64.4c0,0-37.3,12-80,12S435.4,248.9,401.7,294.4z
							"/>
					</g>
				</g>
				<g>
					<g>
						<g>
							<path class="st11" d="M454.3,602c-23.5,51-1.6,111.5,49,135.2s110.7,1.6,134.3-49.3c23.5-51,1.6-111.5-49-135.2
								S477.8,551.1,454.3,602z M626.9,682.9c-20.8,45-74,64.6-118.7,43.6c-44.8-21-64.1-74.5-43.3-119.5
								c20.8-45,74-64.6,118.7-43.6C628.4,584.4,647.8,637.9,626.9,682.9z"/>
						</g>
						<g>
							<path class="st11" d="M533.4,639.1c-3.2,7-0.2,15.3,6.7,18.5c6.9,3.2,15.2,0.2,18.4-6.8c3.2-7,0.2-15.3-6.7-18.5
								C544.8,629.1,536.6,632.1,533.4,639.1z M552.1,647.9c-1.5,3.3-5.4,4.7-8.6,3.2s-4.7-5.4-3.2-8.7c1.5-3.3,5.4-4.7,8.6-3.2
								C552.2,640.8,553.6,644.6,552.1,647.9z M549.3,646.7c-0.8,1.6-2.7,2.3-4.3,1.6c-1.6-0.8-2.3-2.7-1.6-4.3
								c0.8-1.6,2.7-2.3,4.3-1.6C549.3,643.2,550,645.1,549.3,646.7z"/>
						</g>
						<g>
							<polygon class="st11" points="494.4,722.9 537.3,648.2 536.1,647.5 493.3,722.2 							"/>
							<polygon class="st11" points="509.5,731.5 536.6,649.7 535.4,649.2 508.3,731.1 							"/>
						</g>
						<g>
							<polygon class="st11" points="565,737.4 544.6,653.6 543.3,653.9 563.7,737.7 							"/>
							<polygon class="st11" points="581.8,733.1 545.2,655.1 544,655.7 580.6,733.7 							"/>
						</g>
						<g>
							<polygon class="st11" points="606,721.7 551.4,655.3 550.4,656.2 605,722.6 							"/>
							<polygon class="st11" points="619.3,710.5 552.5,656.4 551.7,657.5 618.5,711.5 							"/>
						</g>
						<g>
							
								<rect x="597.1" y="603.9" transform="matrix(4.400139e-02 -0.999 0.999 4.400139e-02 -74.6843 1215.4608)" class="st11" width="1.3" height="85.7"/>
							<polygon class="st11" points="641.2,630.5 556.6,644.1 556.8,645.4 641.4,631.8 							"/>
						</g>
						<g>
							<polygon class="st11" points="633.1,684.4 554.5,650 554,651.2 632.6,685.7 							"/>
							<polygon class="st11" points="639.9,668.4 556.1,650.5 555.8,651.8 639.6,669.7 							"/>
						</g>
						<g>
							<polygon class="st11" points="631.8,604.2 554.5,641.4 555,642.6 632.4,605.4 							"/>
							<polygon class="st11" points="624.2,588.5 555.9,640.5 556.7,641.6 625,589.5 							"/>
						</g>
						<g>
							<polygon class="st11" points="607.5,573.8 552.7,640.2 553.7,641 608.5,574.7 							"/>
							<polygon class="st11" points="594,562.8 553.6,638.8 554.8,639.4 595.2,563.4 							"/>
						</g>
						<g>
							
								<rect x="502.3" y="594.5" transform="matrix(1.830059e-02 -0.9998 0.9998 1.830059e-02 -59.6762 1129.6056)" class="st11" width="86.3" height="1.3"/>
							<polygon class="st11" points="528.2,551.9 543.8,636.7 545.1,636.4 529.5,551.6 							"/>
						</g>
						<g>
							<polygon class="st11" points="583.9,560.5 545.1,637.5 546.2,638.1 585.1,561.1 							"/>
							<polygon class="st11" points="568.4,552.7 545.7,635.9 546.9,636.3 569.6,553.1 							"/>
						</g>
						<g>
							<polygon class="st11" points="506.5,558.4 539.2,638.2 540.4,637.6 507.8,557.9 							"/>
							<polygon class="st11" points="490.5,565.2 538.4,636.7 539.5,636 491.6,564.4 							"/>
						</g>
						<g>
							<polygon class="st11" points="475.2,583.9 537.7,642.9 538.6,641.9 476.1,582.9 							"/>
							<polygon class="st11" points="463.4,596.7 536.4,641.9 537.1,640.8 464.1,595.6 							"/>
						</g>
						<g>
							<polygon class="st11" points="448.9,637.2 534.4,644 534.5,642.7 449,635.9 							"/>
							<polygon class="st11" points="447.7,654.7 532.7,644 532.6,642.7 447.5,653.4 							"/>
						</g>
						<g>
							<polygon class="st11" points="458.2,605.8 535.6,642.9 536.1,641.7 458.8,604.6 							"/>
							<polygon class="st11" points="450.9,621.6 534,642.4 534.4,641.1 451.2,620.3 							"/>
						</g>
						<g>
							<polygon class="st11" points="449.3,664.6 532.7,645 532.4,643.7 449,663.3 							"/>
							<polygon class="st11" points="453.4,681.6 531.2,645.5 530.7,644.3 452.8,680.4 							"/>
						</g>
						<g>
							<polygon class="st11" points="466.7,689.7 539.7,644.5 539,643.4 466,688.6 							"/>
							<polygon class="st11" points="475.9,704.6 538.4,645.5 537.5,644.6 475,703.6 							"/>
						</g>
						<g>
							
								<rect x="492.2" y="696.5" transform="matrix(5.270055e-02 -0.9986 0.9986 5.270055e-02 -189.1256 1195.0093)" class="st11" width="86.3" height="1.3"/>
							<polygon class="st11" points="551,741.1 538.3,655.8 537,656 549.7,741.3 							"/>
						</g>
						<g class="st4">
							<path class="st12" d="M545.7,741.9c-13.7,0-27-3-39.6-8.8c-45-21.1-65.7-73.9-48.3-120.3c-16.2,45.1,4.1,96.1,47.9,116.6
								c12.3,5.8,25.4,8.7,38.8,8.7c36,0,69.2-21.3,84.4-54.3c21.7-46.9,1.6-102.7-44.7-124.3c-12.3-5.8-25.4-8.7-38.9-8.7
								c-5.9,0-11.8,0.6-17.6,1.7c6.3-1.3,12.7-2,19.1-2c13.7,0,27,3,39.6,8.8c47.2,22.1,67.6,79.1,45.5,127.1
								C616.3,720.1,582.5,741.9,545.7,741.9L545.7,741.9z"/>
							<path class="st12" d="M546.9,550.5c13.7,0,27,3,39.5,8.8c47.2,22.1,67.5,79,45.4,126.9c-7.8,16.9-20.2,31-35.8,40.9
								c-15.2,9.6-32.6,14.7-50.4,14.7c-13.7,0-27-3-39.5-8.8c-40-18.7-60.7-62.5-52.6-104.5c-7.1,40.8,13.3,82.8,52.1,101
								c12.3,5.8,25.4,8.7,38.9,8.7c17.5,0,34.6-5,49.5-14.4c15.3-9.6,27.4-23.5,35.1-40c21.7-46.9,1.6-102.8-44.7-124.5
								c-12.3-5.8-25.4-8.7-38.9-8.7c-0.1,0-0.2,0-0.4,0C545.7,550.5,546.3,550.5,546.9,550.5 M546.9,550.3
								c-15.4,0-30.5,3.8-44,10.9c13.1-6.8,27.7-10.4,42.5-10.4c13,0,26.2,2.8,38.8,8.7c46.3,21.7,66.3,77.3,44.6,124.2
								c-15.8,34.2-49.3,54.3-84.3,54.3c-13,0-26.2-2.8-38.8-8.7c-46.3-21.7-66.3-77.3-44.6-124.2c2.5-5.3,5.4-10.3,8.6-15
								c-3.5,4.9-6.6,10.2-9.2,15.9c-22.2,48.1-1.8,105,45.5,127.2c12.8,6,26.3,8.8,39.6,8.8c35.8,0,70.2-20.6,86.4-55.7
								c22.2-48.1,1.8-105-45.5-127.2C573.7,553.1,560.2,550.3,546.9,550.3L546.9,550.3z M502.9,561.2
								c-12.9,6.7-24.4,16.5-33.1,28.9C478.6,577.7,490,568,502.9,561.2L502.9,561.2z"/>
						</g>
					</g>
					<g>
						<g>
							<path class="st11" d="M214.1,533.1c-54.2,0-98.1,45.6-98.1,101.8s43.9,101.8,98.1,101.8s98.1-45.6,98.1-101.8
								C312.3,578.7,268.3,533.1,214.1,533.1z M214.1,724.8c-47.9,0-86.8-40.3-86.8-90s38.8-90,86.8-90s86.8,40.3,86.8,90
								S262,724.8,214.1,724.8z"/>
						</g>
						<g>
							<path class="st11" d="M214.1,620.9c-7.4,0-13.4,6.2-13.4,13.9c0,7.7,6,13.9,13.4,13.9s13.4-6.2,13.4-13.9
								S221.6,620.9,214.1,620.9z M214.1,641.8c-3.5,0-6.3-2.9-6.3-6.5s2.8-6.5,6.3-6.5c3.5,0,6.3,2.9,6.3,6.5
								C220.4,638.8,217.6,641.8,214.1,641.8z M214,638.7c-1.7,0-3.1-1.5-3.1-3.2c0-1.8,1.4-3.2,3.1-3.2s3.1,1.5,3.1,3.2
								S215.7,638.7,214,638.7z"/>
						</g>
						<g>
							<polygon class="st11" points="124.9,620.8 207.8,628.3 207.9,627 125.1,619.4 							"/>
							<polygon class="st11" points="123.6,638.2 206.2,628.4 206.1,627.1 123.4,636.9 							"/>
						</g>
						<g>
							<polygon class="st11" points="141.1,691.2 206.1,637.3 205.3,636.3 140.3,690.2 							"/>
							<polygon class="st11" points="151.8,704.8 205,638.5 204,637.6 150.8,704 							"/>
						</g>
						<g>
							<polygon class="st11" points="171.7,722.1 207.3,644.2 206.2,643.6 170.5,721.6 							"/>
							<polygon class="st11" points="186.9,729.5 206.8,645.8 205.6,645.4 185.7,729.2 							"/>
						</g>
						<g>
							<polygon class="st11" points="250.3,722.5 218.6,642.8 217.4,643.3 249.1,723 							"/>
							<polygon class="st11" points="265.9,715.7 219.3,644.2 218.2,645 264.8,716.5 							"/>
						</g>
						<g>
							<polygon class="st11" points="215.3,731.1 213.2,644.8 212,644.9 214.1,731.1 							"/>
							<polygon class="st11" points="232.2,730.5 213.5,646.5 212.2,646.8 230.9,730.8 							"/>
						</g>
						<g>
							<polygon class="st11" points="285,696.1 220.8,641.2 220,642.2 284.2,697.1 							"/>
							<polygon class="st11" points="295.6,682.5 222.1,642.1 221.5,643.2 295,683.7 							"/>
						</g>
						<g>
							<polygon class="st11" points="301.5,661 221.1,639 220.8,640.3 301.2,662.3 							"/>
							<polygon class="st11" points="305.7,644.1 222.7,639.3 222.6,640.6 305.7,645.4 							"/>
						</g>
						<g>
							<polygon class="st11" points="295.2,595.3 219.2,630.3 219.7,631.5 295.8,596.5 							"/>
							<polygon class="st11" points="288.3,579.4 220.5,629.5 221.3,630.5 289,580.5 							"/>
						</g>
						<g>
							<polygon class="st11" points="303.5,633.9 220.4,630.9 220.3,632.3 303.5,635.2 							"/>
							<polygon class="st11" points="304,616.4 221.9,630.8 222.2,632.1 304.2,617.7 							"/>
						</g>
						<g>
							<polygon class="st11" points="273.7,562.4 217.4,625.9 218.3,626.8 274.6,563.3 							"/>
							<polygon class="st11" points="261.2,550.6 218.3,624.5 219.4,625.2 262.3,551.3 							"/>
						</g>
						<g>
							<polygon class="st11" points="238.6,544.5 212.6,626.5 213.8,626.9 239.8,544.9 							"/>
							<polygon class="st11" points="222.5,539.2 212.9,624.9 214.2,625 223.8,539.3 							"/>
						</g>
						<g>
							<polygon class="st11" points="181.2,543.1 210.3,623.9 211.5,623.4 182.4,542.6 							"/>
							<polygon class="st11" points="165.4,549.3 209.6,622.4 210.6,621.7 166.5,548.6 							"/>
						</g>
						<g>
							
								<rect x="169.6" y="580.8" transform="matrix(9.072333e-03 -1 1 9.072333e-03 -370.5503 788.8939)" class="st11" width="86.3" height="1.3"/>
							<polygon class="st11" points="195.6,538.2 211.6,622.9 212.8,622.7 196.9,538 							"/>
						</g>
						<g>
							<polygon class="st11" points="157.4,555 208.8,622.8 209.8,622 158.4,554.2 							"/>
							<polygon class="st11" points="144.2,565.9 207.6,621.7 208.5,620.7 145,564.9 							"/>
						</g>
						<g>
							<polygon class="st11" points="142.6,581.4 212,629 212.7,627.9 143.3,580.3 							"/>
							<polygon class="st11" points="133.4,596.1 210.6,628.2 211.1,627 133.8,594.9 							"/>
						</g>
						<g>
							<polygon class="st11" points="125.8,663.9 203,631.7 202.5,630.5 125.3,662.7 							"/>
							<polygon class="st11" points="132.2,680.1 201.6,632.5 200.9,631.4 131.5,679 							"/>
						</g>
						<g class="st4">
							<path class="st12" d="M213.3,540.4c-51.1,0-92.6,42.7-92.6,95.3s41.4,95.3,92.6,95.3s92.6-42.7,92.6-95.3
								C305.8,583.1,264.4,540.4,213.3,540.4z M214.3,726.8c-49.9,0-90.3-41.7-90.3-93.1s40.4-93.1,90.3-93.1s90.3,41.7,90.3,93.1
								S264.2,726.8,214.3,726.8z"/>
						</g>
					</g>
					<g>
						<polygon class="st13" points="476.6,527.5 277.9,526.1 277.8,516.7 476.5,518.1 						"/>
						<polygon class="st13" points="387.8,632.4 280.9,521.2 276.6,530.6 383.5,641.9 						"/>
						<polygon class="st13" points="216.8,634 382.3,629.8 382.2,637.1 216.7,641.4 						"/>
						<polygon class="st13" points="278.9,519.1 282.6,525 220.8,637.8 217.1,632 						"/>
						<polygon class="st13" points="285.9,530 276.4,532.4 272.1,498.7 281.6,496.3 						"/>
						<polygon class="st13" points="486.4,566.8 478.2,567.4 474.6,497 482.8,496.3 						"/>
						
							<ellipse transform="matrix(0.2657 -0.9641 0.9641 0.2657 -329.8381 828.7996)" class="st13" cx="379.1" cy="630.9" rx="19.6" ry="19.8"/>
						<ellipse class="st13" cx="218.4" cy="634.3" rx="9.9" ry="10.9"/>
						<path class="st14" d="M308.6,483.5c0.5,10.2-14.7,26.7-29.7,27.9c-15,1.2-40.2-15.7-40.7-25.9s21.5,1.2,36.5,0
							S308,473.3,308.6,483.5z"/>
						<polygon class="st14" points="463.5,633.6 423.6,635.7 423.7,627.5 463.6,625.4 						"/>
						<polygon class="st13" points="440.5,635.7 383.3,643.8 386.4,635.6 443.5,627.5 						"/>
						<path class="st13" d="M542.1,643.2l-5.2,5.1c-20.7-15.9-52.1-41.3-54-78.4l8.2-0.7C492.6,602.3,524,625.2,542.1,643.2z"/>
						<polygon class="st13" points="501.5,592.2 487.8,595.7 474,551.4 487.7,547.8 						"/>
						<polygon class="st13" points="383.6,633.1 380.4,626.3 476.4,522.4 479.6,529.3 						"/>
						<polygon class="st13" points="502.3,494.8 477.7,504.7 471.5,493.5 496.2,483.6 						"/>
						<polygon class="st13" points="500.7,494.5 527.5,473.2 522.2,468.3 495.4,489.6 						"/>
						<ellipse class="st14" cx="524.8" cy="465.1" rx="12.3" ry="10.5"/>
						<path class="st11" d="M343.7,606.6c-57.8,0-147.7,10.8-147.7,27.6s65.4,24.1,123.2,24.1s86.1-7.3,86.1-24.1
							S401.5,606.6,343.7,606.6z M320.2,654.8c-52.5,0-112-6.3-112-20.8s81.7-23.8,134.2-23.8s56,9.3,56,23.8
							S372.7,654.8,320.2,654.8z"/>
						<polygon class="st13" points="392.7,633.5 339.5,671 337.9,662.3 391.2,624.8 						"/>
						<polygon class="st14" points="364.3,679.4 329.3,680.9 325.3,670.8 360.4,669.4 						"/>
					</g>
				</g>
				<g>
					<path class="st15" d="M335.9,314.9l-79.4,104c-4.7,6.2-16.3,5.3-25.9-2l-24.8-18.9c-9.6-7.3-13.5-18.3-8.8-24.5l79.4-104
						c4.7-6.2,16.3-5.3,25.9,2l24.8,18.9C336.7,297.7,340.7,308.7,335.9,314.9z"/>
					<path class="st16" d="M322.5,328.1l-65.8,86.3c-3.9,5.1-13.5,4.4-21.5-1.7l-20.5-15.7c-7.9-6.1-11.2-15.1-7.3-20.3l65.8-86.3
						c3.9-5.1,13.5-4.4,21.5,1.7l20.5,15.7C323.1,313.8,326.4,322.9,322.5,328.1z"/>
					<path class="st8" d="M324,534.4l89,55.3l-90,56.4c0,0-2.6,24.4,32.8,24.4s41.9-6.9,41.9-6.9l-39.3-4.4l14.2-20.6l47.3-42.1
						l14.1,7.9l2-10.4l-8.4-5.6L351,533.5L324,534.4z"/>
					<path class="st9" d="M243,474.5c-3.9,15.3,88,106,88,106l52.3-61.8l-20.5-2.2l-71.8-65C291,451.5,254,431.5,243,474.5z"/>
					<polygon class="st17" points="463.3,184.8 551.8,116.1 451.6,150.7 					"/>
					<g>
						<path class="st18" d="M454,388.5c0,77-39,139-116,139s-96-38-84-79c21.6-73.9,106-140,140.5-216
							C426.4,162.4,454,311.5,454,388.5z"/>
					</g>
					<g>
						<circle class="st18" cx="385" cy="168.5" r="92"/>
					</g>
					<g>
						<circle cx="417.5" cy="132" r="23"/>
					</g>
					<circle class="st12" cx="425.5" cy="124" r="8.5"/>
					<g>
						<path class="st19" d="M442.8,402c0,51.1-25.8,92.1-76.9,92.1s-63.6-25.2-55.7-52.4c14.4-49,70.3-92.8,93.1-143.2
							C424.5,252.1,442.8,351,442.8,402z"/>
					</g>
					<g>
						<path class="st10" d="M373,251.5c39.3,8.9-17,95,51,145c44.9,33,139,56,139,56s-257,85-265-82
							C295.3,314.8,329,241.5,373,251.5z"/>
					</g>
					<circle class="st15" cx="267" cy="271.5" r="57"/>
					<circle class="st16" cx="266.7" cy="271.9" r="41.3"/>
					<circle class="st15" cx="269.7" cy="271.9" r="28.3"/>
					<circle class="st16" cx="269.5" cy="272.1" r="20.5"/>
					<path class="st16" d="M364.2,109l-35.6,17.3c-23.7,11.5-48.5,9.1-55.6-5.4l0,0c-7-14.5-4.9-29.1,18.8-40.6l28.9-5.6l18.6-18.3
						c23.7-11.5,48-8.8,55,5.7l0,0c2.7,5.5,113.2-47.9,110.6-41.4c-1.6,4-115.1,67.8-118.4,71.6C381.1,98.7,373.4,104.6,364.2,109z"
						/>
				</g>
			</g>
		</g>
	</g>
</g>
<text transform="matrix(1 0 0 1 735.4785 557.494)" class="st20 st21 st22">Outdoor Adventure Planner </text>
<text transform="matrix(1 0 0 1 5032.1694 432.0215)" class="st20 st21 st23">TM</text>
</svg>
